<?xml version="1.0" encoding="utf-8"?>
<!-- Generator: Adobe Illustrator 22.0.1, SVG Export Plug-In . SVG Version: 6.00 Build 0)  -->
<svg version="1.1" xmlns="http://www.w3.org/2000/svg" xmlns:xlink="http://www.w3.org/1999/xlink" x="0px" y="0px"
	 viewBox="0 0 512 256" style="enable-background:new 0 0 512 256;" xml:space="preserve">
<style type="text/css">
	.st0{fill:#FFFEF1;}
	.st1{fill:#232323;}
	.st2{fill:none;}
	.st3{fill:#ED1E27;}
	.st4{opacity:2.000000e-02;fill:#232323;}
</style>
<g id="Layer_1">
	<g id="Layer_4">
		<polygon class="st0" points="502.5,222.5 476.2,26.6 474.2,11.4 458.9,11.4 414.5,11.4 399.2,11.4 292.4,11.4 287.6,11.4 
			274.9,11.4 270.2,11.4 245.6,11.4 236,11.4 223.4,11.4 218.5,11.4 187.1,11.4 169.6,11.4 129.8,11.4 112.8,11.4 112.3,11.4 
			97.5,11.4 53,11.4 37.7,11.4 35.7,26.6 9.5,222.5 6.9,242.3 26.8,242.3 61.6,242.3 76.6,242.3 89,242.3 112.3,242.3 123.7,242.3 
			129.8,242.3 143.7,242.3 169.6,242.3 187.1,242.3 218.5,242.3 227.5,242.3 236,242.3 249.7,242.3 270.2,242.3 274.9,242.3 
			287.6,242.3 292.4,242.3 327.5,242.3 334.2,242.3 334.3,242.4 343.5,242.3 344.9,242.3 368.3,242.3 382.1,242.3 388.3,242.3 
			423,242.3 425.7,242.3 438.1,242.3 450.4,242.3 485.2,242.3 505.1,242.3 		"/>
	</g>
	<g>
		<path class="st1" d="M227.5,224.8H183l-13.4-72.6v72.6h-39.8V28.9h39.8v65.5L185,28.9h38.5l-21.6,89.4L227.5,224.8z"/>
	</g>
	<g>
		<path class="st1" d="M274.9,224.8H236V28.9h38.9V224.8z"/>
	</g>
	<g>
		<path class="st1" d="M485.2,224.8h-34.7l-5.9-40.6H429l-6,40.6h-34.7l26.2-195.9h44.4L485.2,224.8z M441.7,153.4l-5-66.9
			l-4.8,66.9H441.7z"/>
	</g>
	<g>
		<path class="st1" d="M382.1,224.8h-38.6c-1.9-2.8-4.3-4.3-5.2-12.1s0-54.8,0-55.2c0-6.6-3.5-10-10.8-10v77.3h-39.8V28.9h51.6
			c9.9,0,20.8,1.6,28.1,7.1c7.3,5.6,11.7,15.5,11.7,27.6v34.3c0,15.2-3.2,25.5-17.7,30.9c14.5,4.2,17.7,15,17.7,32.4v10.7
			C379.1,203.2,377.7,220.7,382.1,224.8z M338.3,101.4V72.7c0-6.8-3.6-10.3-10.8-10.3v49.4C334.7,111.8,338.3,108.4,338.3,101.4z"/>
	</g>
	<g>
		<path class="st1" d="M123.7,224.8H89l-5.9-40.6H67.5l-6,40.6H26.8L53,28.9h44.4L123.7,224.8z M80.3,153.4l-5-66.9l-4.8,66.9H80.3z
			"/>
	</g>
	<g>
		<path class="st3" d="M63,140.1l-0.3,0.5l-0.3-0.9L63,140.1z M145,197.3c-0.1-0.4-0.3-1-0.3-1c-0.1-0.4-0.2-1.5-0.3-1.8
			c-0.4-1.4-2.6-2.6-2.9-3.6l1-0.4c-0.3-0.9-1.1-0.1-1.1-0.1c-1.9,0.6-2.8,1.3-4.9,2l4-1.2l0.5,0.4c0.4,1.2-2.2,2.4-3.3,2.7
			c-1.7,0.5-1.6-1.2-4.2-0.4l-0.4,0.7l-0.5,0.2c-0.5,0.2-1.5,0.5-2,0l1.8-0.6c-1-0.4-2.4,0-3.4,0.3c-0.6,0.2-0.6,0.3-1,0.4
			c-0.3,0.1-0.3,0.1-0.3,0.1c-0.4,0.1-2-0.5-3-0.2c0-0.1,0-0.1,0-0.1l-0.5-0.3c-0.2,0.6-0.5,0.7-1.3,0.9c-1.8,0.6-3.3-0.7-5.8,0.5
			l0.3-0.8l-2.3,0.7c-0.6-0.7-1.7-0.3-2.2-1.2l1.7-0.5c-0.4,0.1-1.5,0-1.8,0.1l-0.7,0.6l-2-0.5l0.5-0.6c-0.4-0.3-0.8-0.2-1-0.1
			l-0.4,0.1l0.5,0.3l-0.4,0.1c-2.2,0.7-10.4-3.2-12.2-3.9l-0.3,0.1l0.2,0.5l-1.3-0.7l0.2-0.2l-0.9-0.7c0.2,0.5-0.2,0.6-0.5,0.7
			c-0.2-0.5-0.2-0.6,0.1-0.7c-1.3-1.1-5.9-3.8-7-3.1l0-0.4l-0.8-0.4l0.2,0.6l-0.1,0l-5.8-3c-0.6,0.2-1.3-0.9-1.5-1.8l0.2-0.2
			c0,0.1,0.7-0.1,0.7-0.1c0.8-0.2,1-0.3,1.4-0.6c0,0.1,1,1,1.1,1.3l0.5,0.4l0.5-0.7l0.5-0.2c-0.2-0.3-2.9-1.5-3.2-1.4l-0.6,0.3
			c0-0.1-1.3-0.7-1.4-0.8l-0.4-0.3l0.5-0.7c0-0.1,0-0.1,0-0.1l-0.6-0.5l0.3-0.5c-1.5-4.8-7.3-8.3-9.1-14.1l0.6-0.2
			c-0.3-1-1.4-1-1.7-2l0.1-1.1l-0.1-0.4c-0.2-0.6-0.8-1.2-1.1-2.2c-0.3-1,1.1-1.5,0.8-2.5c0-0.1-0.3-1-0.7-0.9
			c-0.2,0.6-0.3,1.2-0.2,1.7l-0.2-0.6c-0.3-1,0.4-2.4,0.1-3.4l-1-0.4l-0.1-0.4l1-0.3c-1.2-0.3-1.2-1.5-1.9-1.7
			c1.1-1,0.8-3.2,0.5-4.5c-0.1-0.4-0.3-1-0.7-0.9l-0.9-3.1c-0.5,0.7-1.1,1-1.4,1.5c0,0,0,0-0.1-0.4c-0.4-1.2,2.1-1.5,1.6-2.9
			l-0.5,0.6l-0.3-1c-0.2,0.2-0.6,0.3-1,0.4c-0.2-0.5,0.7-0.4,0-1.3c2.7-5.6,7.2-9.7,9.9-15.4c1.3-0.3,2.8-2.7,2.8-4.2l0.4,0.3
			c3.1-10.2,26-25.3,35.9-29.7l0.3-0.5c-0.4,0.1-1.7,0.5-1.7,0.5c-1.7,0.5-2.6,1.2-4,1.6c-0.3,0.1-0.3,0.1-0.3,0.1
			c0-0.9,7-4.8,7-4.8c0.4-0.1,0.4-0.1,0.4-0.1l0.2,0.3c-0.1-0.4,0.7-0.9,0.7-0.9c0.1,0,1.1-0.1,1.1-0.1l-0.5-1.7
			c0.6-0.2,1.3,0,1.9,0.1c-0.1-0.8,1.2-1.8,0.7-3.2L117,79l0-0.4l-1.3-0.7c0,0,0,0,0.4-0.1c0,0,0.8,0.3,1.2,0.2l0.4,0.4l-0.1,0.5
			l0.3,0.1c0.8-0.2,1.4-0.6,1.6-1.1c-0.9-0.3-1-0.4-1.1-0.8c-0.2-0.5-0.2-0.6,0.6-0.9l0.3,0l0.8,0.3c0,0,0,0,0.4-0.1
			c0.3-1.2,3.3-4,2.9-5.2c7.6-2.3,35.3,9.7,38.1,18.7c1.7,5.4-1.1,17.5-6.9,19.3c-2.7,0.8-3,0.2-7.1,1.7c-0.7-0.1-2.2-0.4-3-0.2
			l-0.5,0.6c0,0,0,0-0.4,0.1l-0.4-0.3l0.1-0.7c-0.6-2.1-11.3-0.2-12.7,0.2c-1.9,0.6-3,2.1-4.7,2.6c-0.4,0.1-1,0.3-1.2,0.4l0.7-1.8
			c-1,0.7-3,1.8-4.4,2.2l0.5,0.1l-4.4,1.3l0.4,0.3c0.1,0.3,0.1,0.3,0.1,0.3c-0.7,1-1.4,1.5-2,1.7c-0.4,0.1-1,0.3-1.1,0.1
			c-3,3.9-7.9,6.5-11.5,10.1c-1.9,4.8-12.5,11-10.8,16.8c0.6,2.1,7.1,14,10.4,13l0.6-0.2c1.5,4.9,19.4,10.5,24.3,9
			c-1.5-4.8-11.4-11-15-13l0.3-0.5c-0.1-0.3-1-1.9-1.1-2.2c-0.1-0.4,0.1-1.1,0.5-1.3c-0.4,0.1-0.5-0.3-0.6-0.5c-0.3-1,1-2.6,1.1-3.7
			l-0.8,0.2l-0.1-0.4l0.5-1c0,0.1,0.9,0.6,1.3,0.5l0.3-0.1l-0.4-1.3c0.5,0.4,0.8,0.4,1,0.8c-0.1-0.4,0.5-1.3,0.3-1.7l-0.6-0.5
			c0,0,0,0-0.1-0.4c0-0.1,0.3-0.2,0.2-0.9l0.3-0.1l1.1-0.2l0.4-0.1l-0.4-1.2l0.1,0c0.5-0.2,0.8-1.2,0.7-1.3c-0.6-0.2-2-0.9-2.8-1.4
			l0.4-0.1c0.8-0.2,2.6,0.3,3.3,0.8c0.4-0.4,0.4-0.8,0.3-1.2c-0.1,0-0.8,0.2-0.9,0l0-0.4l-0.3-0.6l-0.1-0.4c0.6-0.2,1.3,0,1.9-0.2
			c-0.2-0.8-0.4-2.6,0.7-2.9c0.6-0.2,1.4,0,2.2-0.2l-0.2-0.6l-1,0.3l0.1-0.5l-0.6-2.1c1-0.3,1.8,2.1,3.4,1.6l0.4-0.1l-0.6-0.7
			c-0.1-0.3,0.5-1.1,0.8-1.2c-0.2-0.8-0.6-1-0.8-1.7l0.3-0.1c0.3,1,1.7,1.7,2.7,1.4c-0.3,0.5-1.1,1.5-1.4,1.5c0.8,0.2,1.4,0,2.2-0.2
			l0.8-0.2l-1.4-0.4l0.3-0.4c0.3-0.1,1.7-0.5,1.8-0.6l0.1,0.3c1-0.3,3,0.2,2.4-1.7l-0.8-0.2c-0.1-0.4-0.1-0.4-0.1-0.4
			c0.1-1.6,1.3,0,1.9,0.3l0.6,0.5l-0.2,0.8l0.1,0.4l2.4-0.7l-0.1-1.1c0.6-0.2,1.9,0.1,2.4,0.4l4.9-1.5l0.1,0.3l-0.1,0
			c0.3,1,1.9,0.3,2.9-0.1c0,0,1.2-0.4,1.5-0.5c0.1-0.5,0.8-1.1,1.4-1.3l-0.4,1c0.3-0.1,1.3-0.4,1.7-0.5c3.1-0.9,6.3-2.4,9.5-3.3
			c0,0,1-0.3,1.5-0.5c0.3,0.6,1.1,0.8,2.1,0.5l0.4-0.1l1.4-2.7c0.3-0.1,0.3-0.1,0.3-0.1l0.5,0.3l0,1.4l0.5,0.3c1-0.3,1.9-1,1.7-1.7
			c-0.4,0.1-0.9,0.7-1.2-0.3l0.4-1l0.5,0.3l-0.3,0.5c0.1,0.3,0.1,0.3,0.1,0.3l1.2-2.2c0.1,0.4,0.5,0.3,0.6,0.2c0.9-0.3,1.2-3,1.2-3
			l0.2,0.3c1-0.3,1.5-1.2,2.4-1.4l0.3,1l-0.6-0.2c-0.4,0.1-0.9,0.7-1.3,0.8c0.4-0.1,1.2,0.3,1.6,0.2c0.5-0.2,0.5-0.2,0.5-0.2
			l0.4-0.5c0.3,1,2.3,1.5,3.3,1.2c0.1,0.4-1.1,1.5-1.2,1.9l0.9-0.7l0.4,0.3c0.4-0.1,1.4-0.4,1.7-0.5c0.4-0.1,1.7-0.5,1.7-0.5
			c0.4-0.1,1.7-0.9,1.9-1l0.6,0.2c0.5-0.2,0.9-0.7,1.4-0.9l0.1,0.4c2.2-0.7,6.8-2.5,8.6-4.2l0.2,0.6c-0.4,0.1-2.1,1.5-2.4,1.9
			l-0.3,0.5c0.4-0.1,1.9-1,2.3-1.1l0.6-0.2l0.6,2.1c-0.6,0.2-1.7,0.5-1.9,1.3c0,0,0,0,0.4-0.1l0.9-0.6l0.7,0.1l-0.5,0.6l0.8,0.4
			l1,3.2c-1.9,1-0.3,1.2-3,2.1c0.5,1.7,0.8,1.6-0.7,2.9l0.5,0.1l0.8-1c0.1,0.4,0.2,0.6,0.5,0.6c-1.4,1.5-3.2,2.8-5,3.1l0.1,0.7
			c-1-0.1-0.5-0.3-0.6-0.5c-1,0.3-1.9,2-3.3,2.4c-0.4,0.1-1,0.3-1.1,0.1l-0.4,0.8l0.5,0.3c0.1,0.3-1.4,1.8-1.5,2.3
			c0-0.9-0.7-0.9-1-0.8c-2.4,0.7-5.9,8.3-5.4,9.8c0.2,0.5,0.6,0.7,0.8,0.6c0.9-0.3,0.8-1.1,1.7-1.4l0.1,0c0.2,1.2,0.2,2.3-1.4,2.8
			c0.2,0.6,0.7,0.5,0.9,1.1l1.4-0.4l0.1,0.4l-0.2,0.8c0.1,0.4,0.1,0.4,0.1,0.4c4-3.5-0.2-9.8,2.7-12.5c0.1,0.4,0.1,0.4,0.1,0.4
			c0.2,3,0.1,4.9,0.1,7.6c0,0,0,0,0.1,0.3l0.5,0.3c-0.3,0.5-0.4,0.8-0.8,1c0.4,1.4,0.2,8.5-1.5,9c-0.9,0.3-1-0.1-1.5,0
			c-1,0.3-1,1.4-1.7,1.7c-0.3,0.1-0.6,0.2-0.6,0.2c0.2-0.6,0.4-0.8,0.2-1.7c1-0.3,3.1-2.9,3.3-3.8c-2.1,1.5-1.6,0.9-4,1.6l0.1,0.4
			l0,0.9c-0.4,0-0.8-0.3-0.9-0.6c-0.2,0.8-0.3,0.4-1,0.6c0.2,0.5,0.8,0.3,1.7,1c-0.1,1.9-2.2,7.1-4.2,7.8c-0.4,0.1-0.4,0.1-0.4,0.1
			l-0.8-0.2c0.1,0.4,0.1,0.4,0.1,0.4c0.1,0.4,0.8,0.9,0.9,1.1c-1.4,2.7-1.6,3.9-3.4,6l0.1,0.3c1-0.3,2-0.9,1.7-2.3l0.6,0.2
			c0.4-0.1,0.9-0.7,0.9-0.7l-0.6-0.2c1-0.6,2.3-1.7,2.5-2.9c-0.2,0.8-0.9,2.1-1,2.4c0,0,0,0,0.1,0c3.1-0.9,2.3-5.8,6.4-7
			c-0.8,1-0.7,1.3-1.3,1.8c-0.3,0.5-1.4,2-1.4,2l0.3,1l-1.3,1.8c0,0,0,0-0.1-0.4l0.6-0.9c-1.4,0.4-3,2.5-3.5,3.3l0.6,0.2
			c0-0.4,0.3-0.9,0.9-1.1l0.5,0.3c-0.7,1.3-1.8,2.8-2.4,3.7l0.1,0.4c1.2-0.4,1.6-2.7,2.8-3.1l0.8-0.2c-1.3,1.1-4.5,5.5-5.2,6.9
			c0.1,0.4,0.4,1.4,0.5,1.7c0.6,1.8,7,17.7,7.5,19.4c3.1,10.3-15.1,10.8-18.1,20.6l-9.7,3c-0.1-4-0.9-7.9-2-11.6
			C147.4,201.4,145.7,199.6,145,197.3z M64.1,145.1c0,0-0.1-0.3-0.2-0.6c-0.1-0.4-0.2-0.6,0.3-1.4C64.4,143.6,64.3,144.3,64.1,145.1
			z M65,136.1c0.4-0.1,0.2-0.8-0.2-0.6C64.6,135.5,64.8,136.2,65,136.1z M65.4,146.9c-0.3,0.1-0.5-0.6-0.2-0.6
			C65.6,146.2,65.8,146.8,65.4,146.9z M65.1,134.9c0.1,0.4,0.5,0.3,0.4-0.1C65.4,134.6,65,134.7,65.1,134.9z M65.7,148
			c-0.3,0.1-0.5-0.6-0.2-0.6C65.9,147.2,66.1,147.9,65.7,148z M66.8,142.9c0.3-0.1,0.1-0.6-0.2-0.5C66.3,142.5,66.5,143,66.8,142.9z
			 M67.1,147.5c0.3-0.1,0.3-0.1,0.1-0.5C67.2,146.8,66.8,147.7,67.1,147.5z M67.7,149.2c0.3-0.1,0.1-0.5-0.1-0.4
			C67.2,148.9,67.3,149.3,67.7,149.2z M68,152.5c0,0.1,0.3,0.1,0.3-0.1C68.1,152,67.8,152.1,68,152.5z M68.5,151.9
			c0.3-0.1,0.1-0.7-0.2-0.6C67.9,151.4,68.1,152,68.5,151.9z M68.6,148.5c0.3-0.1,0.1-0.7-0.2-0.6C68,148,68.2,148.6,68.6,148.5z
			 M70.6,164.1l0.6,0.5l-0.3-1l-0.4,0.1L70.6,164.1z M70.9,154c0.4-0.1,0.2-0.6-0.2-0.5C70.4,153.6,70.6,154.1,70.9,154z
			 M71.5,152.1c0.3-0.1,0.1-0.7-0.2-0.6C70.9,151.6,71.1,152.2,71.5,152.1z M72.3,154.7c-0.2-0.5-0.2-1.6-0.4-2.3l-0.6,0.2
			C71.4,153.3,71.7,154.3,72.3,154.7z M71.8,155.4c0.3-0.1,0-1-0.3-0.9C71.1,154.6,71.4,155.5,71.8,155.4z M71.9,165.5
			c0.3-0.1,0.2-0.3-0.1-0.3C71.5,165.4,71.5,165.6,71.9,165.5z M72.5,166.4c0.4-0.1,0.2-0.8-0.2-0.6
			C72.1,165.9,72.2,166.5,72.5,166.4z M72.2,171.6c1.7,2,4.2,3.9,6.2,5.4l0.1,0.4c-2.3,0-5.6-3.5-6.1-5.2L72.2,171.6z M72.7,122.9
			c0.4-0.1,0.1-1-0.3-0.9C72.2,122.1,72.4,123,72.7,122.9z M73.4,175.3l-0.2-0.8c2.5,0.8,3.9,4.4,6.3,5.9l-0.3,0.2l-0.7,0.1
			l-0.8,0.2C76.8,178.3,74.1,177.6,73.4,175.3z M73.7,121.1c-0.4,0.1-0.6-0.5-0.2-0.6C73.7,120.3,73.9,121,73.7,121.1z M74.2,169.9
			c0.2,0.5,0.5,0.4,0.4-0.1C74.5,169.3,74.1,169.5,74.2,169.9z M74.6,119.4c-0.3,0.1-0.4-0.3-0.1-0.4
			C74.8,118.9,75,119.3,74.6,119.4z M75.2,168c0.4-0.1,0.2-0.8-0.2-0.6C74.6,167.5,74.8,168.1,75.2,168z M75.5,171.3
			c0.3-0.1,0.1-0.7-0.2-0.6C75,170.8,75.1,171.4,75.5,171.3z M76.7,169.1c0.3-0.1,0.1-0.5-0.1-0.4C76.2,168.8,76.3,169.2,76.7,169.1
			z M77.3,170.1c0.4-0.1,0.2-0.6-0.2-0.5C76.9,169.6,77,170.1,77.3,170.1z M77.5,170.7c0.4-0.1,0.2-0.8-0.2-0.6
			C77,170.1,77.2,170.8,77.5,170.7z M78,171c0.4-0.1,0.2-0.9-0.2-0.8C77.3,170.3,77.6,171.1,78,171z M78,178.3
			c-0.3,0.1-0.5-0.6-0.2-0.6C78.1,177.5,78.3,178.2,78,178.3z M78.5,178.6c-0.4,0.1-0.6-0.5-0.2-0.6
			C78.6,177.8,78.8,178.4,78.5,178.6z M79.1,173.2c0.3-0.1,0.1-0.7-0.2-0.6C78.5,172.6,78.7,173.3,79.1,173.2z M79.4,173.5
			c0.4-0.1,0.3-0.5-0.1-0.4C79.1,173.2,79.2,173.6,79.4,173.5z M79.8,182.8c-0.4,0.1-0.5-0.4-0.2-0.5
			C80,182.2,80.1,182.7,79.8,182.8z M80.1,179.3c0.4-0.1,0.2-0.6-0.2-0.5C79.7,178.9,79.8,179.4,80.1,179.3z M80.6,178.1
			c0.3-0.1,0.1-0.6-0.2-0.5C80,177.7,80.2,178.2,80.6,178.1z M80.6,179.7c0.4-0.1,0.2-0.8-0.2-0.6C80.1,179.2,80.3,179.8,80.6,179.7
			z M80.9,175.6c0.3-0.1,0.1-0.7-0.2-0.6C80.3,175,80.5,175.7,80.9,175.6z M81.1,180c0.3-0.1,0-1-0.3-0.9
			C80.5,179.2,80.8,180.1,81.1,180z M81.4,176.1c0.4-0.1,0.2-0.8-0.2-0.6C80.9,175.6,81.1,176.2,81.4,176.1z M81.1,178.9
			c0,0.1,0.4,0,0.4-0.1C81.4,178.4,81,178.5,81.1,178.9z M81.8,182.2c0.3-0.1,0.1-0.6-0.2-0.5C81.3,181.8,81.4,182.3,81.8,182.2z
			 M82.1,179.3c0.3-0.1,0.1-0.7-0.2-0.6C81.5,178.8,81.7,179.4,82.1,179.3z M81.8,176c0.1,0.4,0.2,0.3,0.1,0
			C81.8,175.7,81.7,175.7,81.8,176z M82.2,182.6c0.4-0.1,0.1-1-0.3-0.9C81.7,181.8,82,182.7,82.2,182.6z M83,177.9
			c0.4-0.1,0.2-0.8-0.2-0.6C82.3,177.4,82.5,178,83,177.9z M83.6,183.5c0.4-0.1,0.3-0.5-0.1-0.4C83.2,183.1,83.4,183.5,83.6,183.5z
			 M85,184.2c-0.1-0.4-0.2-0.6-0.7-0.5c-0.1,0-0.1,0-0.1,0C84.2,184,84.4,184.3,85,184.2z M85,183c0.1,0-0.1-0.7-0.2-0.6
			C84.4,182.5,84.6,183.1,85,183z M85.5,182.2c0.4-0.1,0.2-0.6-0.2-0.5C84.8,181.8,85,182.3,85.5,182.2z M85.5,184.7
			c0.1,0-0.1-0.7-0.2-0.6C85,184.2,85.2,184.8,85.5,184.7z M88.8,185.2l0.4-0.1c-0.2-0.8-0.8-0.9-0.9-1.6l-2.2-1.3l-0.1,0l-0.1-0.3
			l-0.7,0.9C86.9,183.2,86.6,185.9,88.8,185.2z M85.7,186.5c-0.5,0.2-0.7-0.5-0.2-0.6C85.9,185.7,86.1,186.4,85.7,186.5z M85.8,185
			c0.5-0.2,0.3-0.8-0.2-0.6C85.5,184.4,85.7,185.1,85.8,185z M86.4,185.1c0.4-0.1,0.2-0.8-0.2-0.6C85.7,184.7,85.9,185.3,86.4,185.1
			z M86.9,185.4c0.1,0-0.1-0.7-0.2-0.6C86.3,184.9,86.5,185.5,86.9,185.4z M88.4,184.3c-0.5,0.2-0.7-0.5-0.2-0.6
			C88.3,183.6,88.5,184.2,88.4,184.3z M90.1,186c0.4-0.1,0.3-0.5-0.1-0.4C89.9,185.6,90,186,90.1,186z M90.7,186.5
			c0.3-0.1,0.1-0.7-0.2-0.6C90.1,186,90.3,186.6,90.7,186.5z M90.8,188.7 M91.1,188.9 M94.7,97.8c-0.4,0.1-0.6-0.5-0.2-0.6
			C94.9,97,95.1,97.6,94.7,97.8z M95.6,190.3c-0.4,0.1-0.5-0.4-0.2-0.5C95.8,189.7,96,190.2,95.6,190.3z M95.8,96.3
			C95.7,96,96,96,96.1,96.2C96.2,96.6,95.9,96.7,95.8,96.3z M96.8,190.5c0.4-0.1,0.2-0.8-0.2-0.6C96.2,190,96.4,190.7,96.8,190.5z
			 M98.6,94.7c-0.3,0.1-0.5-0.6-0.2-0.6C98.8,94,98.9,94.6,98.6,94.7z M99.7,93.3l0.4,0.3l-0.6,0.2l-0.1-0.4
			C99.3,93.4,99.3,93.4,99.7,93.3z M101.9,90.4c-0.1-0.3,0.4-0.4,0.5-0.2C102.5,90.6,102,90.7,101.9,90.4z M102.2,91.8
			c-0.1-0.4,0.5-0.6,0.6-0.2C102.9,92,102.3,92.2,102.2,91.8z M103.3,155.9l-0.5-0.6c-0.2-1.5,0.6-2,1.3-0.4l0.1,0.4
			c0.2,0.6-0.1,2-0.1,2l-0.6,0.2c0.1-0.6,0.1-0.6-0.1-1.2L103.3,155.9z M104,91.7l-0.5,0.2l-0.1-0.4L104,91.7z M104.5,194.7
			c-0.1,0-0.3-0.6-0.2-0.6C104.8,193.9,105,194.5,104.5,194.7z M105.3,90.4c-0.4,0.1-0.6-0.5-0.2-0.6
			C105.6,89.6,105.8,90.3,105.3,90.4z M105.6,192.5c0.4-0.1,0.2-0.8-0.2-0.6C105.3,191.9,105.5,192.5,105.6,192.5z M106.7,192.6
			c0.1,0-0.1-0.8-0.2-0.8C105.9,192,106.2,192.7,106.7,192.6z M106.8,192.5c0.1,0.3,0.5,0.1,0.4-0.1
			C107.1,192,106.7,192.2,106.8,192.5z M107.5,192.6c0.1,0.4,0.5,0.3,0.4-0.1C107.8,192.2,107.4,192.3,107.5,192.6z M108,194
			c0.4-0.1,0.2-0.8-0.2-0.6C107.5,193.5,107.7,194.1,108,194z M108.4,192.8c0.1,0.4,0.4,0.3,0.3-0.1
			C108.5,192.3,108.3,192.4,108.4,192.8z M109.1,194c0.4-0.1,0.2-0.8-0.2-0.6C108.6,193.4,108.8,194,109.1,194z M109.6,123.3
			c-0.4,0.1-0.6-0.7-0.2-0.8C109.7,122.4,109.9,123.2,109.6,123.3z M111,154.7c-0.4,0.1-0.6-0.5-0.2-0.6
			C111.2,153.9,111.4,154.6,111,154.7z M111.5,85.6c-0.4,0.1-0.6-0.5-0.2-0.6C111.7,84.8,111.9,85.5,111.5,85.6z M111.4,194.1
			c0.1,0.3,0.5,0.1,0.4-0.1C111.6,193.6,111.2,193.7,111.4,194.1z M112.1,153.2c-0.4,0.1-0.6-0.5-0.2-0.6
			C112.1,152.5,112.3,153.1,112.1,153.2z M112.1,194.2c0.1,0.4,0.5,0.3,0.4-0.1C112.4,193.8,112,193.9,112.1,194.2z M112.7,151.6
			c0.3-0.1,0-0.9-0.2-0.8C112.1,151,112.3,151.7,112.7,151.6z M113.1,151.8c0.4-0.1,0.2-0.8-0.2-0.6
			C112.6,151.2,112.8,151.9,113.1,151.8z M114.5,193.4c0.1,0.4,0.8,0.2,0.6-0.2C115.1,193,114.4,193.2,114.5,193.4z M114.9,117.2
			l0.4-0.1l-0.1-0.4l-0.4,0.1L114.9,117.2z M117.4,131.5l-0.1,0l-0.5,0.2c-0.4,0.1-1.8-0.3-1.8-0.3l-0.1-0.3
			C115.4,131,117,130.7,117.4,131.5z M115.7,142c0.3-0.1,0-1-0.3-0.9C115,141.2,115.3,142.1,115.7,142z M115.4,143.8l0.3-0.5
			l-0.4,0.1L115.4,143.8z M115.5,194.3c0.1,0.4,0.5,0.3,0.4-0.1C115.8,193.9,115.4,194,115.5,194.3z M116,138.5
			c-0.5,0.2-0.7-0.5-0.2-0.6C116.2,137.7,116.4,138.4,116,138.5z M115.9,136.3c-0.1,0-0.3-0.6-0.2-0.6
			C116.2,135.5,116.4,136.1,115.9,136.3z M115.8,116.5l0.7-0.5l-0.8,0.2L115.8,116.5z M116.4,75.4l0.4,0.3l-0.6,0.2l-0.1-0.4
			C116,75.5,116,75.5,116.4,75.4z M116.7,139.4c0.1,0,0-0.6-0.2-0.5C116.2,139,116.3,139.5,116.7,139.4z M116.5,193.9
			c0.1,0.4,0.8,0.2,0.6-0.2C117.1,193.5,116.4,193.7,116.5,193.9z M116.8,133.1c-0.1,0-0.3-0.6-0.2-0.6
			C116.9,132.3,117.1,133,116.8,133.1z M117.1,133c-0.1-0.3,0.4-0.4,0.5-0.2C117.8,133.2,117.3,133.3,117.1,133z M117.3,75.9
			c-0.1-0.4,0.3-0.5,0.4-0.1C117.8,76.1,117.4,76.2,117.3,75.9z M117.9,137.4c0.1,0,0-0.6-0.2-0.5
			C117.3,137,117.4,137.5,117.9,137.4z M118,132c-0.4,0.1-0.6-0.5-0.2-0.6C118.3,131.2,118.5,131.8,118,132z M117.8,194
			c0.1,0.3,1,0,0.9-0.3C118.6,193.3,117.7,193.6,117.8,194z M118.2,78.8c-0.4,0.1-0.5-0.4-0.2-0.5C118.4,78.1,118.5,78.6,118.2,78.8
			z M118.2,140.1c0.5-0.2,0.3-0.8-0.2-0.6C117.9,139.5,118.1,140.1,118.2,140.1z M118.1,195c0.1,0.3,0.6,0.1,0.5-0.2
			C118.5,194.5,118,194.6,118.1,195z M118.9,136.9c0.1,0-0.1-0.7-0.2-0.6C118.2,136.4,118.4,137.1,118.9,136.9z M119.1,137.6
			c0.1,0-0.1-0.7-0.2-0.6C118.4,137.1,118.6,137.7,119.1,137.6z M119.1,133.5c0.4-0.1,0.5-0.6,0.4-0.8l-0.4-0.3l-0.4,0.5
			C118.9,132.8,119,133.1,119.1,133.5z M119.2,194.9c0.5-0.2,0.3-0.8-0.2-0.6C118.9,194.3,119.1,195,119.2,194.9z M121.1,116.8
			c-1.6,2.5-3.3,2-0.4,0.1L121.1,116.8z M119.7,194.8c0.1,0.4,0.6,0.2,0.5-0.2C120.2,194.4,119.6,194.5,119.7,194.8z M120.2,78
			c0.3-0.1,0-1-0.3-0.9C119.5,77.2,119.8,78.1,120.2,78z M120.7,131.2c-0.4,0.1-0.6-0.5-0.2-0.6
			C120.9,130.4,121.1,131.1,120.7,131.2z M121,194.8c0.4-0.1,0.2-0.8-0.2-0.6C120.7,194.2,120.9,194.9,121,194.8z M122,194.5
			l-0.1-0.4l-0.1,0L122,194.5z M122.8,115.2c-0.3,0.4-0.4,0.8-0.8,1c0,0,0,0-0.1-0.4c-0.1-0.3,0.3-0.4,0.6-0.5L122.8,115.2z
			 M122.3,128.1c-0.3,0.1-0.5-0.7-0.2-0.8C122.4,127.3,122.7,128,122.3,128.1z M123.4,195.2l0.4-0.1c-0.1-0.4-0.9-0.2-1.1-0.1
			l-0.5,0.2C122.3,195.5,122.7,195.4,123.4,195.2z M123.7,129.1c0.4-0.1,0.2-0.8-0.2-0.6C123.3,128.6,123.5,129.2,123.7,129.1z
			 M123.6,114.1c-0.1-0.3,0.1-0.3,0.1,0C123.9,114.4,123.7,114.5,123.6,114.1z M125.5,193.4c0.3-0.1,0.1-0.5-0.1-0.4
			C125,193.2,125.1,193.6,125.5,193.4z M126.5,126.9L126,127l0.3-0.5L126.5,126.9z M126.1,194.4c0,0.1,0.4,0,0.4-0.1
			C126.3,193.9,126,194,126.1,194.4z M126.1,193.2l0.6-0.2l-0.1-0.4C126.3,192.8,126,192.9,126.1,193.2z M126.3,124.2
			c0-0.1,0.3-0.2,0.4-0.1C126.8,124.5,126.4,124.6,126.3,124.2z M127,109.8c0.1,0.3,0.3,0.2,0.3-0.1
			C127.1,109.4,126.8,109.4,127,109.8z M127.4,126.6c-0.4,0.1-0.6-0.7-0.2-0.8C127.3,125.8,127.6,126.5,127.4,126.6z M128.5,126.5
			c-0.4,0.1-0.5-0.1-0.1-0.3C128.6,126.2,128.7,126.5,128.5,126.5z M130.5,193.2l1-0.3c-0.7,0.1-1.1,0.2-1.7,0.4l-0.6,0.2
			C129.4,194.1,130.5,193.2,130.5,193.2z M129.6,191.1c0.1,0.4,0.4,0.3,0.3-0.1C129.7,190.6,129.4,190.7,129.6,191.1z M129.7,195.1
			c-0.2-0.5,0.1-0.6,0.3-0.1C130,195.4,129.8,195.5,129.7,195.1z M130.2,127.8l0.6-0.2l-0.1-0.3
			C130.6,127.4,130.1,127.6,130.2,127.8z M130.5,126.6c0.1,0.4,0.5,0.3,0.4-0.1C130.8,126.2,130.5,126.4,130.5,126.6z M130.6,192.3
			l0.4-0.1l-0.1-0.4L130.6,192.3z M132.4,192c0.4-0.1,0.2-0.8-0.2-0.6C131.7,191.6,131.9,192.2,132.4,192z M132.9,192.4l-0.2,0.6
			l0.4-0.7C132.9,192.4,132.9,192.4,132.9,192.4z M135.4,193.9l-1.5,1l-0.2-0.5L135.4,193.9z M134.1,192.1l0.6-0.2l-0.2-0.1
			c-0.5,0.2-0.5,0.2-0.5,0.2L134.1,192.1z M134.4,193.1c0.5-0.2,0.4-0.7-0.2-0.5C134.1,192.6,134.3,193.1,134.4,193.1z M135.1,191.6
			c0.5-0.2,0.3-0.8-0.2-0.6C134.5,191.1,134.7,191.8,135.1,191.6z M134.9,126.1l0.6-0.2l-0.8-0.2L134.9,126.1z M135.9,192.5
			c0.1,0-0.1-0.9-0.3-0.9C135.1,191.8,135.4,192.7,135.9,192.5z M136.6,191.2c0.1,0-0.1-0.7-0.2-0.6
			C135.9,190.7,136.1,191.3,136.6,191.2z M137.6,191.6c0.4-0.1,0.2-0.8-0.2-0.6C137.1,191,137.3,191.6,137.6,191.6z M138.5,190.7
			c0.4-0.1,0.3-0.2,0-0.1C138.2,190.7,138.2,190.8,138.5,190.7z M139.1,190c0.9-0.3,1.2-0.7,1.7-1.2l-0.3,0.1
			C139.8,189.1,138.9,189.3,139.1,190z M140,190.8c0.3-0.1,0.1-0.7-0.2-0.6C139.5,190.3,139.7,190.9,140,190.8z M140.8,189.5l1-0.3
			l-0.1-0.3L140.8,189.5z M143,123.6c-0.1-0.4,0.4-0.5,0.5-0.2C143.6,123.7,143.1,123.9,143,123.6z M143.9,111.3
			c0.4-0.1,0.2-0.8-0.2-0.6C143.3,110.8,143.5,111.4,143.9,111.3z M148.1,206.5c-0.3,0.1-0.5-0.6-0.2-0.6
			C148.3,205.8,148.5,206.4,148.1,206.5z M149.2,122.9c-0.3,0.1-0.5-0.7-0.2-0.8C149.4,122,149.6,122.7,149.2,122.9z M150.6,209.8
			c0.4-0.1,0.2-0.8-0.2-0.6C150,209.3,150.2,209.9,150.6,209.8z M151.1,211.2c0.4-0.1,0.2-0.9-0.2-0.8
			C150.4,210.6,150.7,211.4,151.1,211.2z M151.1,214.9c0.4-0.1,0.2-0.8-0.2-0.6C150.5,214.4,150.7,215,151.1,214.9z M151.1,210.1
			c0.3-0.1,0.1-0.7-0.2-0.6C150.6,209.6,150.7,210.2,151.1,210.1z M150.8,212.7c0.1,0.4,0.4,0.3,0.3-0.1
			C151,212.4,150.7,212.5,150.8,212.7z M151.9,211.7c0.4-0.1,0.2-0.8-0.2-0.6C151.4,211.1,151.6,211.8,151.9,211.7z M152.4,209.7
			c0.3-0.5,0.1-1.1-0.4-1.4C151.4,208.2,152,210.1,152.4,209.7z M151.9,213.9c0,0,0,0,0.4-0.1l0.8-2.1
			C152.2,212.7,151.8,212.1,151.9,213.9z M152.1,207.1c0.1,0,0.1,0,0.1-0.3C152,206.4,151.7,207.2,152.1,207.1z M152,210.5
			c0.1,0.4,0.2,0.3,0.1,0C152,210.1,151.9,210.1,152,210.5z M153.1,208.3c0.4-0.1,0.2-0.8-0.2-0.6
			C152.4,207.9,152.6,208.5,153.1,208.3z M152.7,142.5l3-0.9c0.4-0.1-0.1-1.7,0.2-2l-0.8,0.2c-0.6,0.2-1.3,0.4-1.6,0.8l1-0.3
			l0.1,0.4C154.1,140.9,152.8,141.9,152.7,142.5z M154.2,145c0.3-0.2,1.7-1.8,1.5-2.4l-2.7,1C153.4,144,154.1,144.9,154.2,145z
			 M153.8,122.2l5.7-1.7l-0.1-0.4l-5.3,1.6L153.8,122.2z M154.5,212.7 M154.9,143.7c-0.4,0.1-0.6-0.5-0.2-0.6
			C155.1,142.9,155.3,143.5,154.9,143.7z M155.1,145.8l-0.2-0.6l-0.3,0.1C154.8,145.8,154.9,145.9,155.1,145.8z M155.9,145.5
			c1.3-0.4,0.7-2.5,1.5-3.4l-1,0.3l-0.5,2.1l-0.3,0.1L155.9,145.5z M157.1,141.2c1.3-0.4-0.4-1.2,0.9-1.6c-0.4-0.3-1-0.1-1.5-0.2
			l-0.4,0.8C156.8,140.1,156.7,141.3,157.1,141.2z M157.4,138.6c0.1,0.4,0.4,0.3,0.3-0.1C157.6,138.2,157.3,138.3,157.4,138.6z
			 M158,209.1c0.4-0.1,0.2-0.9-0.2-0.8C157.4,208.5,157.6,209.2,158,209.1z M161.4,119.4c-0.4,0.1-0.6-0.5-0.2-0.6
			C161.5,118.7,161.7,119.3,161.4,119.4z M161.7,114.5c-0.1-0.4,0.5-0.6,0.6-0.2C162.5,114.7,161.9,114.9,161.7,114.5z M165.9,114
			c-0.3,0.1-0.5-0.6-0.2-0.6C166.1,113.2,166.3,113.8,165.9,114z M166.6,160.3c0.4-0.1,0.2-0.8-0.2-0.6
			C166.1,159.8,166.3,160.4,166.6,160.3z M167.1,164.3l0.4-0.1l-0.1-0.4L167.1,164.3z M167.8,155.5c0.1,0-0.1-0.7-0.2-0.6
			C167.2,154.9,167.4,155.6,167.8,155.5z M168.6,167.9l0.1-0.5l-0.6,0.2L168.6,167.9z M168.6,163.4c0.4-0.1,0.2-0.8-0.2-0.6
			C167.9,162.9,168.1,163.5,168.6,163.4z M168.6,158.2c0.1,0-0.1-0.7-0.2-0.6C168,157.6,168.2,158.3,168.6,158.2z M168.3,116.2
			l0.4-0.4l-0.5,0.2L168.3,116.2z M169.3,167.2c0.5-0.2,0.3-0.8-0.2-0.6C168.9,166.6,169.1,167.3,169.3,167.2z M169.4,169.6l0.4-0.1
			l-0.4,0L169.4,169.6z M169.8,111.4c-0.1,0-0.3-0.5-0.2-0.5C170,110.7,170.2,111.3,169.8,111.4z M169.9,159.6
			c0.4-0.1,0.2-0.8-0.2-0.6C169.6,159,169.8,159.6,169.9,159.6z M170,114.5c0.5-0.2,0.3-0.8-0.2-0.6
			C169.7,113.9,169.9,114.6,170,114.5z M170.5,113.7c0.4-0.1,0.2-0.8-0.2-0.6C170.2,113.1,170.4,113.7,170.5,113.7z M170.4,152.7
			c0,0.1,0.3,0.1,0.3-0.1C170.6,152.2,170.3,152.3,170.4,152.7z M171.1,154.9c0.3-0.1,0.1-0.6-0.2-0.5
			C170.6,154.5,170.7,155,171.1,154.9z M171,115.4c0.4-0.1,0.2-0.8-0.2-0.6C170.7,114.8,170.9,115.4,171,115.4z M171.4,159.6
			c-0.4,0.1-0.6-0.5-0.2-0.6C171.7,158.8,171.9,159.4,171.4,159.6z M172,145.9c0.4-0.1,0.6-0.2,0.4-0.8l-1.2,0.7
			C171.4,146.1,171.6,146,172,145.9z M171.4,147.5c0.4-0.1,0.4-0.1,0.3-0.4C171.6,146.7,171.1,147.5,171.4,147.5z M172,172.9
			c-0.4,0.1-0.6-0.5-0.2-0.6C171.9,172.2,172.1,172.9,172,172.9z M172.1,150.6c0.3-0.1,0.1-0.7-0.2-0.6
			C171.5,150.1,171.7,150.8,172.1,150.6z M172.1,158.2c-0.4,0.1-0.4,0.1-0.4,0.1l1.1-1.5C173.1,157.6,172.4,158.1,172.1,158.2z
			 M171.8,153.5c0.2,0.5,0.4,0.4,0.3-0.1C172,153.1,171.7,153.1,171.8,153.5z M172.2,109.5c-0.3,0.1-0.4-0.4-0.2-0.5
			C172.4,108.9,172.6,109.4,172.2,109.5z M172.3,152.8c0.4-0.1,0.2-0.6-0.2-0.5S171.9,152.9,172.3,152.8z M172.5,113.5
			c0.1,0-0.1-0.7-0.2-0.6C171.8,113,172,113.6,172.5,113.5z M172.5,152.1c0.3-0.1,0-1-0.3-0.9C171.8,151.3,172.1,152.2,172.5,152.1z
			 M172.3,155.1c0,0,0,0,0.3-0.1l0.2-0.6L172.3,155.1z M172.8,149.7c0.4-0.1,0.2-0.8-0.2-0.6C172.3,149.2,172.5,149.8,172.8,149.7z
			 M172.8,136.4c0.4-0.1,0.2-0.6-0.2-0.5C172.4,135.9,172.5,136.4,172.8,136.4z M173.2,152l0.6-0.3l-1,0.3L173.2,152z M174.2,157.6
			l-1.1,1.5c0,0,0,0-0.1-0.4c-0.1-0.3,1.1-1.3,1.1-1.3L174.2,157.6z M173.1,145.6c0.1,0.4,0.5,0.3,0.4-0.1
			C173.3,145,172.9,145.2,173.1,145.6z M173.6,142.8c0.4-0.1,0.2-0.9-0.2-0.8C173.1,142.1,173.4,142.9,173.6,142.8z M173.7,157.4
			c-0.4,0.1-0.6-0.7-0.2-0.8S174.1,157.3,173.7,157.4z M173.8,144.2c0.3-0.1,0.3-0.1,0.1-0.5C173.8,143.5,173.4,144.3,173.8,144.2z
			 M174.1,151.2c0.3-0.1,0.1-0.7-0.2-0.6C173.5,150.6,173.7,151.3,174.1,151.2z M173.7,141.7c0,0,0,0,0.4-0.1l0.5-0.6l-0.4,0.1
			C174,141.2,173.6,141.3,173.7,141.7z M174.3,165.2c-0.4,0.1-0.5-0.4-0.2-0.5C174.4,164.6,174.5,165.1,174.3,165.2z M174.4,140.4
			c0.4-0.1,0.3-0.5-0.1-0.4C173.9,140.1,174,140.5,174.4,140.4z M174.5,139.2c0.3-0.1,0.1-0.6-0.2-0.5
			C173.9,138.8,174.1,139.3,174.5,139.2z M174.2,147c0.1,0.4,0.1,0.4,0.1,0.4l1.7-3.2l-0.1-0.3C175.6,144.3,173.9,146,174.2,147z
			 M174.4,156.1c-0.4,0.1,0-0.9,0.1-0.5C174.7,156,174.7,156,174.4,156.1z M174.5,153.8c-0.2-0.5,0.5-0.7,1.3-0.9
			C175.9,153.4,175.1,153.6,174.5,153.8z M175,138.5c0.1,0-0.1-0.9-0.3-0.9C174.3,137.7,174.6,138.6,175,138.5z M174.9,143.2
			c0.4-0.1,0.4-0.1,0.3-0.5C175,142.4,174.6,143.2,174.9,143.2z M175.2,155c-0.4,0.1-0.6-0.5-0.2-0.6
			C175.3,154.3,175.5,154.9,175.2,155z M175.3,137.4c0.4-0.1,0.2-0.8-0.2-0.6C174.6,136.9,174.8,137.6,175.3,137.4z M175.4,147.4
			c0.4-0.1,0.2-0.8-0.2-0.6C174.9,146.8,175,147.5,175.4,147.4z M175.6,157.6c0.4-0.1,0.2-0.8-0.2-0.6
			C175,157.1,175.2,157.7,175.6,157.6z M175.7,162.3c-0.4,0.1-0.4,0.1-0.4,0.1l0.4-0.8c0,0,0,0,0.4-0.1L175.7,162.3z M175.6,140
			c-0.1,0-0.3-0.5-0.2-0.5C175.9,139.3,176.1,139.8,175.6,140z M176.3,114.2c-0.4,0.1-0.5-0.3-0.1-0.4
			C176.4,113.7,176.5,114.1,176.3,114.2z M176,143.1c0.1,0.4,0.5,0.3,0.4-0.1C176.3,142.7,175.9,142.9,176,143.1z M177.1,146.8
			c0,0,0.2-1.2,0.6-1.6c0.3-0.5,0.2-0.8,0.1-1.1c-0.4,0.1-1.5,0-1.3,0.8c0.1,0.3,0.1,0.3,0.1,0.3l0.5,0.3c0.2,0.6-0.7,1.3-1.1,1.5
			L177.1,146.8z M176.5,112.6c-0.1-0.3,0.3-0.4,0.4-0.1C177,112.8,176.6,113,176.5,112.6z M177.7,153.5c-0.3,0.5-0.8,1-1.2,1.1
			c0.2-0.8,0.4-0.8,0.8-1L177.7,153.5z M177.2,155.3c-0.4,0.1-0.6-0.7-0.2-0.8C177.2,154.4,177.4,155.2,177.2,155.3z M176.8,113.6
			c-0.5-0.1,1.6-0.8,1.4-0.4C177.9,113.7,177.3,113.9,176.8,113.6z M176.8,148.1c-0.1-0.3,0.3-0.4,0.4-0.1
			C177.3,148.3,176.9,148.5,176.8,148.1z M176.9,160.4c-0.4,0.1,0.6-1.6,0.8-1.2C177.7,159.5,177.2,160.3,176.9,160.4z M177.7,115.2
			c0.3-0.1,0.1-0.7-0.2-0.6C177.1,114.6,177.3,115.3,177.7,115.2z M177.7,137.8c-0.5,0.2-0.6,0,0-0.1
			C177.8,137.6,177.8,137.8,177.7,137.8z M177.6,137.1c-0.1,0-0.3-0.5-0.2-0.5C177.9,136.5,178,137,177.6,137.1z M178.1,135.3
			c-0.5,0.2-0.7-0.5-0.2-0.6C178,134.6,178.2,135.3,178.1,135.3z M177.8,143.7c0.5-0.2,0.3-0.8-0.2-0.6
			C177.5,143.1,177.7,143.7,177.8,143.7z M177.9,134.2c-0.1,0-0.3-0.6-0.2-0.6C178.1,133.5,178.3,134.1,177.9,134.2z M178.2,158.6
			c-0.4,0.1-0.6-0.5-0.2-0.6C178.2,157.9,178.4,158.5,178.2,158.6z M178.6,133.3c-0.5,0.2-0.7-0.5-0.2-0.6
			C178.5,132.6,178.7,133.3,178.6,133.3z M178.3,141.4l-0.1,0c-0.1-0.4,0.2-1.6,0.3-1.7L178.3,141.4z M178.4,132.2
			c-0.1,0-0.3-0.6-0.2-0.6C178.6,131.5,178.8,132.1,178.4,132.2z M178.3,145.1c0.5-0.2,0.5-0.2,0.4-0.5
			C178.6,144.3,178.1,145.1,178.3,145.1z M178.8,112.7c-0.4,0.1-0.6-0.7-0.2-0.8C178.8,111.9,179,112.6,178.8,112.7z M179.2,138.3
			l-0.5,0.7c0,0,0,0-0.1-0.4c-0.3-1-0.2-2.9,0.5-4.2l1,0.8c0.2,0.6,0.4,3.5-0.7,3.9c-0.1-0.3-0.2-0.6,0.2-0.9
			C179.2,138.3,179.2,138.3,179.2,138.3z M179.3,112.1c-0.4,0.1-0.6-0.5-0.2-0.6C179.5,111.4,179.7,112,179.3,112.1z M179.5,136.1
			c0.1,0-0.1-0.7-0.2-0.6C178.8,135.7,178.9,136.3,179.5,136.1z M179.7,144.2l0-0.3c0,0,0,0-0.1-0.4l-0.5,0.6L179.7,144.2z
			 M179.5,141.8c-0.4,0.1-0.5-0.3-0.1-0.4C179.9,141.2,180,141.6,179.5,141.8z M179.2,137.2c0,0.1,0,0.1,0,0.1l0.3-0.8L179.2,137.2z
			 M179.8,141c-0.5,0.2-0.8-0.6-0.2-0.8C179.7,140.1,179.9,140.9,179.8,141z M179.8,148.3c0.4-0.1,0.2-0.8-0.2-0.6
			C179.1,147.8,179.3,148.4,179.8,148.3z M180.1,117.1c0.3-0.1,0.1-0.7-0.2-0.6C179.5,116.6,179.7,117.2,180.1,117.1z M180.1,114.8
			c0.4-0.1,0.2-0.8-0.2-0.6C179.5,114.3,179.7,114.9,180.1,114.8z M180.2,130.6c-0.4,0.1-0.5-0.3-0.1-0.4S180.5,130.5,180.2,130.6z
			 M180.5,111c-0.4,0.1-0.6-0.5-0.2-0.6C180.6,110.3,180.8,111,180.5,111z M180.1,145.2c0.1,0.4,0.1,0.4,0.1,0.4l0.1-0.9
			L180.1,145.2z M180.6,116.5c0.4-0.1,0.2-0.8-0.2-0.6C180.1,116,180.2,116.6,180.6,116.5z M180.5,142.8c0.1,0.4,0.5,0.3,0.4-0.1
			C180.8,142.5,180.4,142.6,180.5,142.8z M182.1,110.2l0.1,0.4l-0.5-0.3L182.1,110.2z M182.1,144.2c-0.1,0-0.3-0.6-0.2-0.6
			C182.3,143.4,182.5,144.1,182.1,144.2z M182,119.5c0.1,0.4,0.8,0.2,0.6-0.2C182.4,118.8,181.8,119,182,119.5z M182.7,113.6
			c0.4-0.1,0.2-0.8-0.2-0.6C182,113.1,182.2,113.8,182.7,113.6z M182.7,115.9l-0.3,0.5l0.4-0.5C182.7,115.9,182.7,115.9,182.7,115.9
			z M183,114.6c0,0,0,0,0.4-0.1l0.1-0.3L183,114.6z M183.1,113.2c0.1,0.3,0.6,0.1,0.5-0.2C183.5,112.7,183,112.8,183.1,113.2z
			 M183.6,118.4c0.5-0.2,0.5-0.3,0-0.1C183.4,118.3,183.5,118.4,183.6,118.4z M183.7,128.1c-0.1-0.4,0.3-0.5,0.4-0.1
			C184.2,128.2,183.8,128.3,183.7,128.1z M184.5,126.7c0.4-0.1,0.2-0.9-0.2-0.8C184,126,184.2,126.8,184.5,126.7z M184.7,118.6
			c-0.2-0.6-0.2-1.1,0.7-1.3l-1,0.3L184.7,118.6z M185.1,113.7c0.4-0.1,0.2-0.9-0.2-0.8C184.8,113,185,113.8,185.1,113.7z
			 M185.5,115.4c0.1,0-0.1-0.7-0.2-0.6C184.8,114.9,185,115.6,185.5,115.4z M185.1,116.3l0.1,0c1.5-0.5,2.3-1.8,3-2.1l0.1,0.4
			c0.4-0.1,2.8-0.9,2.4-2.3c-0.3,0.5-0.7,0.6-0.9,0.7l-0.4,0.1c0.4-0.1,0.5-0.6,0.8-1l-0.4,0.1C187.6,113,186.7,115.1,185.1,116.3z
			 M185.6,127.8l0.1,0.4l-0.4,0.1l-0.1-0.4L185.6,127.8z M186,124.4c0.4-0.1,0.1-0.9-0.2-0.8C185.3,123.8,185.5,124.6,186,124.4z
			 M185.6,125.3c0.1,0.3,0.2,0.2,0.1,0C185.6,124.8,185.4,124.9,185.6,125.3z M185.5,117.8c0.2,0.5,0.3,0.5,0.1,0
			C185.6,117.6,185.5,117.7,185.5,117.8z M186.1,113.7c0.1,0-0.1-0.7-0.2-0.6C185.4,113.2,185.6,113.9,186.1,113.7z M186,117.1
			l0.9-0.8l-0.5,0.2C186,116.5,185.9,116.6,186,117.1z M186.7,112.1c0.1,0-0.1-0.7-0.2-0.6C186,111.6,186.2,112.3,186.7,112.1z
			 M186.5,113.3l0.5-0.2l0.7-0.6l-0.9-0.1c-0.5,0.2-0.5,0.2-0.5,0.2L186.5,113.3z M186.7,117.3c0,0.1,0.6,0,0.5-0.2
			C187.1,116.8,186.5,116.9,186.7,117.3z M186.7,126.7c-0.1-0.4,0.3-0.5,0.4-0.1C187.2,127,186.8,127.1,186.7,126.7z M186.8,121.9
			c0.1,0.3,0.2,0.2,0.1,0C186.8,121.5,186.7,121.5,186.8,121.9z M188.2,111.2c0.3-0.1,1-0.6,1-0.6l-1.8,0.6L188.2,111.2z
			 M187.7,126.4l0.3-0.5c0,0,0,0,0.1,0L187.7,126.4z M188.1,123.4c0.4-0.1,0.2-0.8-0.2-0.6C187.8,122.8,188,123.4,188.1,123.4z
			 M188.5,121.4c0.1,0,0-0.6-0.2-0.5C187.8,121.1,188,121.6,188.5,121.4z M188.2,116.9l0.1,0l-0.1-0.4l-0.1,0L188.2,116.9z
			 M188.7,123.9c0.1,0.4,0.8,0.2,0.6-0.2C189.2,123.4,188.6,123.6,188.7,123.9z M188.9,126.1c-0.1,0-0.3-0.6-0.2-0.6
			C189.1,125.3,189.3,126,188.9,126.1z M189.2,116.1l0.2-0.6l-0.4,0.1L189.2,116.1z M189.9,120.6c0.3-0.1,0.1-0.7-0.2-0.6
			C189.3,120,189.5,120.7,189.9,120.6z M190.2,110.4c0.3-0.1,0-0.9-0.2-0.8C189.5,109.7,189.8,110.5,190.2,110.4z M190.3,123.4
			c0.4-0.1,0.2-0.8-0.2-0.6C190,122.8,190.2,123.4,190.3,123.4z M190.9,120.1c0.3-0.1,0-1-0.3-0.9
			C190.2,119.3,190.5,120.2,190.9,120.1z M190.9,114.2c0.4-0.1,0.2-0.9-0.2-0.8C190.3,113.6,190.5,114.3,190.9,114.2z M190.9,118
			c0.4-0.1,0.2-0.8-0.2-0.6C190.4,117.5,190.6,118.1,190.9,118z M190.9,122.9c0.4-0.1,0.2-0.9-0.2-0.8
			C190.4,122.2,190.6,123,190.9,122.9z M190.7,121l0.6-0.5c0,0,0,0-0.1-0.4L190.7,121z M191.3,115.5c0.1,0.4,0.5,0.3,0.4-0.1
			C191.5,114.9,191.1,115,191.3,115.5z M191.5,114l-0.2,0.3c0,0,0,0,0.3-0.1l0.3-0.4C191.5,114,191.5,114,191.5,114z M192.4,117.6
			c0.3-0.1,0.1-0.7-0.2-0.6C191.8,117,192,117.7,192.4,117.6z M192.4,114.5c0.4-0.1,0.2-0.8-0.2-0.6
			C191.9,113.9,192.1,114.5,192.4,114.5z M193.1,116.6c0.4-0.1,0.2-0.6-0.2-0.5C192.6,116.2,192.8,116.7,193.1,116.6z M193.9,119.3
			c0.1,0.4-0.1,0.5-0.5,0.6l-0.1-0.4L193.9,119.3z M194.4,121c-0.3,0.1-0.5-0.6-0.2-0.6C194.6,120.3,194.8,120.9,194.4,121z
			 M195.3,118.8l-0.6,0.2l0.4-1.1L195.3,118.8z M195,119.4l-0.2,0.3l-0.1-0.3L195,119.4z"/>
	</g>
	<g>
		<path class="st3" d="M214,157.2c-0.4,0-0.4-0.6,0-0.5C214.4,156.7,214.4,157.2,214,157.2z M216.5,138.3c-0.4,0-0.4-0.7,0-0.7
			C216.7,137.7,216.6,138.3,216.5,138.3z M263.4,200.8c-0.4,0-0.4,0-0.4,0c-0.3,0-1.1,0.7-1.4,0.7l-1.2-4.4l0.5-0.6
			c-6-3-27.3-68-30.5-79.7l-1.1-0.1l0.7-0.4c0.1-1.1-0.6-1.1-0.2-2.2l-3.7-12c-0.6-10.4-7.6-19.7-6.7-31.4c0-0.1,0.2-3,0.3-3.8
			c2.4-1.6,10.7-7.3,10.8-9.6l0.4,0l1,0.8l0.7-0.5l0.4-0.1c0.3-0.4,1-0.9,1-0.9c0.4,0,1.8,0.7,2.1,0.7c0.4,0,1.6-1.2,1.7-1.2l1-0.3
			c0.1,0,0.8,0.5,1.2,0.5l0.1-1.1c0.1-0.8,3.6-1.2,4.4-1.4c-0.2,6.3,18.3,19,15.6,29.5c2.2,5.2,25.1,83.5,25.1,83.6
			c0.3,2.6,2.9,11.3,2.7,14.9l-0.4,0c-0.1-0.3-0.7-1.4-1.1-1.8l-0.5-0.2c-0.2,0.5-0.2,1.1-0.3,1.6c0,0.7,1.3,13.6,2.9,13.7l0.6-0.5
			c-0.1,0.7,0.2,1.4,0.1,2.2c0,0.3-0.1,0.7-0.1,0.7l-0.5-1.8l-0.2,0.3c0,0.4-0.1,1.5-0.1,1.5c0.8,0.1,0.6,2.9,0.5,3.5
			c0,0.4-0.1,1.5-0.1,1.7l-0.6-1.4c-0.1,0-0.1,0-0.1,0l-0.6,0.2c0,0.4,0,0.4,0,0.4c0.5,0.7,0.9,2.9,0.8,3.3l0.3,0.2
			c0,0.5-0.7,0.5-0.8,0.5c-2.7-0.2-1.7-4.7-3.6-4.9c0,0.3,0,1.8,0.9,2.2l-0.2,2.4c-0.4,0-0.9-0.1-0.9-0.6c0,0.5-0.6,0.5-1.1,0.5
			c-1.6-0.1,0.1-1.1-1.5-1.9l-1.4,0c0,0-0.4,0-0.7-0.1c-0.1,0.9-0.8,0.5,0.6,1.1c0-0.1,0.7-0.1,1.1-0.1c0,0,0,0.7-0.5,0.6l-7.8-0.6
			l1-0.6c-0.5,0-1.6,0-1.5-1.1l0.7-0.5c-1.1,0.5-1.7-0.8-1.8-1.5l-0.5,1c0,0.3,0,0.3,0,0.3c0,0.4,0.3,1.6,0.2,2.2
			c-0.4,0-0.4,0-0.4,0s-0.6-0.7-0.6-1.1l-0.1,1.1l-5-0.4c0-0.5-1.3-2.3-1.3-2.5c-0.1,1.9-0.1,0.7-0.7,0.6l-0.1,1.7l-0.3,0
			c0,0-0.3-1.1-0.3-1.6l0-0.1C262.3,201.5,263.3,201.6,263.4,200.8z M222.2,153.9c0-0.4,0.4-0.4,0.4,0
			C222.6,154.3,222.2,154.3,222.2,153.9z M224.7,116.3c-0.4,0-0.3-1,0.1-0.9C225.1,115.3,225,116.3,224.7,116.3z M225,116.3
			c0-0.4,0.8-0.3,0.8,0.1C225.8,116.5,225,116.4,225,116.3z M226.8,130c-0.3,0-0.2-0.7,0-0.7C227.3,129.4,227.2,130.1,226.8,130z
			 M227.4,59.4l0,0.5l-0.1-0.5L227.4,59.4z M232.3,159.6c-0.4,0-0.4-0.7,0-0.7C232.9,159,232.8,159.6,232.3,159.6z M233.1,141.3
			c0-0.3,0.2-0.3,0.1,0C233.2,141.7,233.1,141.7,233.1,141.3z M233.6,201.1c-0.4,0-0.3-1,0.1-0.9
			C233.9,200.2,233.8,201.1,233.6,201.1z M233.4,55.4c0-0.4,0.4-0.4,0.4,0C233.8,55.8,233.4,55.8,233.4,55.4z M238.1,52.2
			c-0.1,0-0.1-0.8,0.1-0.8C238.7,51.5,238.6,52.3,238.1,52.2z M239.6,53.4c0,0.3,0,0.3,0,0.3c-0.5,0-1-0.8-1-1.2c0,0,0,0,0-0.3
			C239,52.3,239.7,53,239.6,53.4z M240.9,172.6c0-0.1,0.4-0.1,0.4,0C241.3,173.2,240.9,173.2,240.9,172.6z M241.1,165.4
			c0.1-1.3,1.2-1.3,2.2-1.2C243.2,165.3,241.9,165.4,241.1,165.4z M241.6,55.6c0.1,0,0.2-0.7,0-0.7
			C241.1,54.9,241.1,55.5,241.6,55.6z M243.6,55c0.4,0,0.5-0.6,0-0.7C243.3,54.4,243.3,55,243.6,55z M259.3,197.3
			c-0.1,0-0.1-0.4,0-0.4C259.8,197,259.7,197.4,259.3,197.3z M260.2,198.8c-0.5,0-0.5-0.3,0-0.3
			C260.3,198.5,260.3,198.8,260.2,198.8z M260.6,200.9c-0.4,0-0.4-0.7,0-0.7C260.9,200.3,260.8,201,260.6,200.9z M260.7,202.2
			c-0.3,0-0.2-0.6,0-0.5C261.2,201.7,261.1,202.2,260.7,202.2z M261.8,198.2c0,0,0-0.4,0-0.7c0-0.4-0.3-0.8-0.7-0.9
			C261.1,197.5,261.1,197.7,261.8,198.2z M261.7,199.6c0.3,0,0.3-0.7,0-0.7C261.4,198.9,261.3,199.5,261.7,199.6z M262.5,198.9
			c0.4,0,0.4-0.2,0-0.3C262.1,198.6,262.1,198.9,262.5,198.9z M262.6,202.2c0.3,0,0.3-0.4,0-0.4
			C262.2,201.7,262.2,202.2,262.6,202.2z M262.8,200c0.3,0,0.3-0.4,0-0.4C262.4,199.6,262.4,200,262.8,200z M263.2,37.5
			c-0.4,0-0.4-0.7,0.1-0.7C263.5,36.8,263.5,37.5,263.2,37.5z M263.4,204c0-0.5,0.8-0.5,0.8,0.1C264.2,204.5,263.4,204.4,263.4,204z
			 M264.9,96.3c-0.4,0-0.4-0.7,0-0.7C265.1,95.6,265.1,96.3,264.9,96.3z M267.3,64c-0.4,0-0.3-1,0.1-0.9C267.5,63,267.5,64,267.3,64
			z M267.8,52.3c-0.5,0-0.5-0.7,0-0.7C268.2,51.6,268.2,52.3,267.8,52.3z M269.1,202l0.1-0.8l-0.1,0L269.1,202z M269.6,202.8
			c0.4,0,0.4-0.5,0-0.5C269.1,202.3,269,202.8,269.6,202.8z M270.2,201.3c0.5,0,0.6-0.6,0-0.7C270.2,200.6,270.1,201.3,270.2,201.3z
			 M270.5,31.3c-0.1,0-0.1-0.5,0-0.5C271,30.8,270.9,31.3,270.5,31.3z M271.1,204c-0.1,0-0.1-0.5,0-0.5
			C271.7,203.5,271.7,204.1,271.1,204z M272.3,202.2c0.5,0,0.6-0.8,0.1-0.8C272,201.4,271.9,202.2,272.3,202.2z M272.9,95.8
			c-0.4,0-0.4-0.7,0-0.7C273.4,95.2,273.3,95.8,272.9,95.8z M272.9,203.1c0,0.5,0.4,0.6,0.4,0C273.4,203,273,202.9,272.9,203.1z
			 M273.3,197.6l0-0.7l-0.2,0.4L273.3,197.6z M273.7,198.4c0.5,0,0.6-0.4,0-0.4C273.3,198,273.3,198.4,273.7,198.4z M274.3,197.6
			c0.1,0,0.2-0.7,0-0.7C273.8,196.9,273.7,197.6,274.3,197.6z M274,201.5l0.1,0c0.4,0,0.7,0,0.7-0.2L274,201.5z M274.3,204.3
			c0.3,0,0.3-0.5,0-0.5C274,203.7,273.9,204.2,274.3,204.3z M274.2,200.5c0.4,0,0.4-0.2,0-0.3C274.1,200.2,274.1,200.5,274.2,200.5z
			 M274.3,199.5c0.4,0,0.5-0.8,0.1-0.8C274.2,198.7,274.1,199.5,274.3,199.5z M274.4,198.5c0.4,0,0.5-0.8,0.1-0.8
			C274.3,197.6,274.2,198.5,274.4,198.5z M275.1,202.4c0.4,0,0.5-0.8,0.1-0.8C274.8,201.6,274.7,202.4,275.1,202.4z M275,203.8
			l0.7,0c0-0.5-0.2-1.1-0.6-1.1L275,203.8z M277.3,202.2l0-0.4c0-0.3,0-0.7-0.3-1.1l0,0.4C277,201.5,277,201.8,277.3,202.2z
			 M277.5,202.9c0.4,0,0.4-0.2,0-0.3C277.3,202.6,277.3,202.9,277.5,202.9z M277.8,196.2c0.3,0,0.3-0.7,0.1-0.7
			C277.4,195.4,277.4,196.1,277.8,196.2z M277.9,203.4c0.4,0,0.4-0.5,0-0.5C277.5,202.9,277.5,203.4,277.9,203.4z M278.2,204.4
			l0,0.1l0.3-1.1c0,0,0,0,0-0.1C278.3,203.5,278.3,204,278.2,204.4z M281.2,203.1l0.3-0.7c0-0.4-1-1.6-1.2-2.2l-0.1,1.7l-0.6-0.7
			c-0.8,0.3,0,0.7-0.9,1C279.4,202.8,280.4,202.4,281.2,203.1z M278.8,199.9c0.4,0,0.5-0.8,0.1-0.8
			C278.6,199,278.6,199.9,278.8,199.9z M279.7,199.1c0.3,0,0.3-0.7,0.1-0.7C279.4,198.4,279.3,199.1,279.7,199.1z M279.7,146.2
			c-0.4,0-0.4-0.7,0-0.7C280,145.6,280,146.3,279.7,146.2z M279.9,200c0.4,0,0.4-0.4,0-0.4C279.7,199.5,279.6,199.9,279.9,200z
			 M281.2,205.7c-0.3,0-0.2-1,0.1-0.9C281.7,204.8,281.6,205.7,281.2,205.7z M281.1,198.6l0.6,0.5c0.4,0,0.9-0.7,0.9-1
			c-0.4,0.2-1.1,0.2-1.5,0.2L281.1,198.6z M281.7,196.4c0.3,0,0.3-0.2,0-0.3C281.3,196.1,281.3,196.4,281.7,196.4z M281.9,201.9
			l0.4,0l-0.4-0.4L281.9,201.9z M282.3,203c0.3,0,0.3-0.8,0.1-0.8C281.9,202.1,281.9,202.9,282.3,203z M282.5,200.1
			c0.3,0,0.3-0.8,0.1-0.8C282.1,199.3,282.1,200.1,282.5,200.1z M282.6,193c0.4,0,0.4-0.5,0-0.5C282.2,192.4,282.2,193,282.6,193z
			 M282.7,200.8l0.4,0.7l0-0.4c0-0.3,0.1-0.7-0.4-0.7C282.7,200.8,282.7,200.8,282.7,200.8z M283,204.4l0,0.4l0,0.1
			c0.9,0.1,0.9-0.1,1-0.5c0-0.5,0-0.7-0.3-1.4C283.6,203.3,283,203.8,283,204.4z M283.1,202.6c0.5,0,0.6-0.6,0-0.7
			C283,201.9,283,202.6,283.1,202.6z M283.4,198.3c0.5,0,0.6-0.6,0-0.7C283.3,197.6,283.3,198.3,283.4,198.3z M283.6,193.6
			c0.1,0,0.2-0.9,0.1-0.9C283.3,192.6,283.2,193.6,283.6,193.6z M283.5,197.4c0.5,0,0.6-0.4,0-0.4
			C283.4,197,283.3,197.4,283.5,197.4z M283.8,190.9c0.1,0,0.2-0.5,0-0.5C283.5,190.4,283.4,190.9,283.8,190.9z M283.9,128.2
			c-0.4,0-0.4-0.7,0-0.7C284.2,127.5,284.1,128.2,283.9,128.2z M283.7,194.7c0.5,0,0.6-0.9,0.1-0.9
			C283.6,193.8,283.5,194.7,283.7,194.7z M283.9,191.9c0.5,0,0.6-0.4,0-0.4C283.8,191.5,283.8,191.9,283.9,191.9z M284.3,199.2
			c0.1,0,0.2-0.4,0-0.4C283.9,198.8,283.9,199.2,284.3,199.2z M284.2,199.9c0.1,0,0.1,0,0.2-0.4
			C284.4,199.2,283.8,199.8,284.2,199.9z M284.5,191c0.4,0,0.4-0.5,0-0.5C284,190.4,284,190.9,284.5,191z M284.4,192.6
			c0,0.1,0.4,0.2,0.4,0C284.8,192.1,284.4,192.1,284.4,192.6z M284.7,193.7c0.1,0,0.2-0.9,0.1-0.9
			C284.4,192.7,284.3,193.7,284.7,193.7z M285.2,196c0,0,0.2-2.3,1.2-2.1l-1.6-0.1C284.8,194.8,284.7,195.3,285.2,196z M284.8,192
			l0.2-0.4c0,0,0,0,0-0.5L284.8,192z M285.7,142.4c-0.4,0-0.4-0.7,0-0.7C286,141.7,285.9,142.4,285.7,142.4z M287.6,199.7
			c0,0,0,0,0-0.3c0,0-0.9-2.9-1.3-2.9l-0.7,0.2l-0.1,0l-0.1,1.1l0.7-0.2C286.3,197.6,287.2,199.4,287.6,199.7z M285.6,198.5
			c0,0.4,0.5,0.4,0.5,0C286.1,198.3,285.6,198.2,285.6,198.5z M285.7,205.6c-0.1,0-0.1-0.7,0-0.7C286.2,205,286.1,205.7,285.7,205.6
			z M285.9,191.6c0.1,0,0.2-1.1,0.1-1.1C285.6,190.5,285.5,191.6,285.9,191.6z M285.8,195.4c0.5,0,0.6-0.5,0-0.5
			C285.7,194.8,285.7,195.4,285.8,195.4z M285.8,193.2l0.7,0l0-0.4L285.8,193.2z M286.3,181.7c-0.5,0-0.5-0.7,0-0.7
			C286.7,181,286.7,181.7,286.3,181.7z M286,192.2c0.5,0,0.5-0.1,0-0.1C285.9,192,285.9,192.2,286,192.2z M286.1,200
			c0.4,0,0.4-0.4,0-0.4C286,199.6,286,200,286.1,200z M286.4,201.8c0.5,0,0.6-1,0.1-1.1C286.1,200.7,286,201.8,286.4,201.8z
			 M286.5,194.9c0.4,0,0.5-0.9,0.1-0.9C286.4,194,286.4,194.9,286.5,194.9z M286.8,188.5c-0.5,0-0.5-0.7,0-0.7
			C287,187.8,287,188.5,286.8,188.5z M287.2,185.4L287,186l-0.5-0.4L287.2,185.4z M286.6,184.3c-0.1,0-0.1-0.7,0-0.7
			C287.2,183.6,287.1,184.3,286.6,184.3z M287.1,156.2c-0.5,0-0.5-0.8,0.1-0.8C287.5,155.5,287.5,156.3,287.1,156.2z M287.1,170.3
			c-0.5,0-0.5-0.7,0-0.7C287.6,169.6,287.5,170.3,287.1,170.3z M286.9,202.9l0.1,0l-0.1-0.7L286.9,202.9z M287.3,204
			c0.5,0,0.6-0.6,0.1-0.7C287,203.3,286.9,204,287.3,204z M288,187.9c-0.9-0.1-0.9-0.7-0.9-1.1C288,186.8,288,187.5,288,187.9z
			 M287.1,200.8l1-0.2l-0.9-0.1L287.1,200.8z M287.8,190c-0.5,0-0.5-0.7,0.1-0.7C288,189.4,287.9,190,287.8,190z M288.3,183.3
			c0.5,0,0.9,4,0.9,4.2l0,0.4c-1-0.5-1-3.3-1.4-4.7C287.8,183.3,287.8,183.3,288.3,183.3z M287.9,190c-0.1,0,0.5-0.6,0.4-0.4
			C288.3,190.1,288.3,190.1,287.9,190z M288.2,191.8c-0.4,0-0.4-0.6,0-0.5C288.8,191.3,288.7,191.8,288.2,191.8z M288.1,193
			c0,0,0,0,0-0.1l0.6-0.5L288.1,193z M289.5,188.4c0.2,0.7,0.2,1.1,0.1,1.8l0,0.7l-0.5-2.2L289.5,188.4z M289.2,192.9l0.2,0.6
			c0,0.5,0,0.5,0,0.5c-0.3,0-0.2-0.6-0.2-1L289.2,192.9z M292,80.4c-0.4,0-0.4-0.4,0-0.4C292.2,80,292.1,80.4,292,80.4z M299.2,61.3
			c-0.3,0-0.2-0.7,0.1-0.7C299.7,60.7,299.6,61.4,299.2,61.3z"/>
	</g>
	<g>
		<g>
			<path class="st3" d="M397,175.8c-1.1,0-0.3-0.3-1.3-0.3c0,0.7,0.7,0.3-0.7,1.1v-2.2c-0.4,0.7-0.8,1.3-0.8,2.2l-0.7-0.4
				c0,0.4,0,1.1-0.4,1.1c0.8,0,1.1,0.7,1.1,1.1c-0.3,0-1.3,0-1.3-0.4c0,0.7,0,1.1-0.8,1.1c-0.8,0-0.8-1.1-0.8-1.7
				c-0.5,0-0.5,0-0.5,0c-0.4,0.7-0.4,2.2-0.4,2.8c-0.7-0.4-0.1-1.7-1.2-1.7c-0.7,0-0.5,0.3-1.1,0.3v2.2h-0.7
				c-0.9-0.3-0.9-1.7-1.1-2.4c0,0.3-0.4,0.7-0.7,1.1c0-1.1,0-1.1-0.8-1.1c-0.7,0-1.1,0.3-1.7,0.3c-1.7,0-4.6-9.7-5.7-10.8
				c-0.7-1.7-5-10.2-5.8-11.8c-2.6-4.6-6.1-15.7-10.5-17.8c-0.5-0.1-1.1,0.9-1.1,1.1c0-1.1-1.1-0.5-1.1-1.2c-1.7,0-5,3-7.4,3
				c-0.4,0-0.4,0-0.4,0l0.8-0.7h-0.4h-0.4c-0.3,0-1.7,0.7-2.2,0.7l0.4,0.4l-0.4,0.5l-0.8-0.5c-2.2,0.5-6.7,2.4-8.5,2.4
				c-0.8,0-1.1-0.3-1.5-0.3h-0.4c-0.3,0-3.6,1.1-4.2,1.1h-0.4h-0.1l-0.5-0.4l-0.5,0.4c-0.5,0-0.5,0-0.5,0c-0.5,0-2.2-0.4-2.2-0.4
				l-0.1-0.7c-0.4,0-1.1,0.3-1.5,0.3l-0.3-0.3h-1.1v-1.1h-2.2c1.1-0.5,1.7-2.2,2.4-2.3H326v-1.1h-1.3l0.7-0.4l0.4-0.5l-0.4-0.1
				c0.7-0.4,1.1-1.1,1.7-1.1c0,0.4,0,0.7-0.4,1.1c1.1-0.4,0.4-1.1,0.4-1.7h-2.2c0-1.5,3.2,0,2.2-2.2c0,0.4,0.7,0.4,0.7,0.4
				c1.5,0,2.6-1.5,2.6-2.6c0-0.3,0-0.7-0.4-0.7c0.5-0.4,2.3-2.3,3.8-3.2l-0.5,1.1c1.1-0.7,4.7-3.4,6.2-3.4h0.4l-0.4,0.4h0.4
				c0.3-0.4,10.4-3.6,10.4-4.7c0-3.1-5.8-10.2-7.9-13.2c-2.8-4.3-3.9-6.5-5.2-11c-0.8-2.3-29.5-2.3-29.5-6.9V85
				c1.7,0.1,0.7-0.5,0.7-1.1h-0.3c0-1.7,1.3-1.6,1.3-2.8c0-0.7-0.3-1.5-1.1-1.7c0.4,0,0.4-0.8,0.4-1.1c0.4,0.3,0.7,0.7,1.3,0.7h0.4
				c0-0.4-0.4-1.1-0.4-1.5c0-1.3,1.5-2,2.6-2.4c0,0,0,0,0-0.4c0-0.7-1.7-1.3-2.2-1.3c0,0,0.4,0,0.7,0c0.8,0,1.1,0.4,2.2,0.4
				c2.3,0,2.3-3.6,4.3-4.7v-0.1l0.7-0.7l-0.5-0.9h1.1v0.5c8.1-1.6,15.1-3.2,24-3.2c1.7,0,4,0,6.2,0.4h22.1c7-2.8,42-4.6,51.8-6.1
				l0.7-0.3c0,0,3.2-0.4,4.3-0.4c0,0,0,0,0.3,0l-0.3,0.4c-0.4,0-1.7,0.7-2.2,0.7l0.4,0.7c0.3,0,1.3-0.3,1.7-0.3c0,0,0,0,0.3,0
				c0.8,0,0.4,1.3,0.4,1.7v0.7l-6.3,2.2h2c-1.7,0.7-3.5,1.3-5.2,1.7c0,0.1,0.7,0.1,1.1,0.1l-1.1,1.1c2.2-1.1,2.8-1.2,5.2-1.9v0.8
				c0.8,0,2.6-0.5,2.8-1.2c0,0.7,1.1,0.4,1.5,0.4v1.7c-0.7,0-1.5,0.7-2.2,1.1h1.1c-0.7,0.1-0.7,0.7-0.7,0.8v0.4
				c0.3-0.5,0.7-0.5,1.3-0.5h0.4l-0.4,0.1l0.4,0.4c-0.7,0-1.1,0.5-1.1,1.1l-0.4-0.4c0,0,0,0-0.3,0l-0.4,0.9
				c-0.3-0.9-0.3-0.5-0.7-0.5v0.7H425l-0.3-0.1l-0.8,0.1l0.4,0.4l-0.7,0.3l0.3,0.4c-0.3,0-1.7,0.7-2,1.1l-0.4,0.4l0.4,0.3
				c-0.4,0.4-0.8,0.7-0.8,1.1l-0.3-0.7c-0.4,0.7-0.5,2.2-1.5,2.2h-0.1l0.1-0.4c-0.1,0-0.1,0-0.1,0c-0.5,0-0.9,0.4-0.9,0.4
				c0,0.3,0.4,0.9,0.4,0.9c-0.4-0.3-2.2,0.4-2.7,0.4c0,1.5,1.5,1.5-1.1,1.7c0.5,0,0.5,0.4,0.5,0.8c0,0.8-2.3,2.4-2.7,3.5
				c-6.3,5.1-14.3,5.5-21,9.7c-1.5,0.4-11.8,1.5-13.3,3.8c0,0.5,0,0.5,0,0.5l0.4,0.1h4.6c-1.1,0.4-4.3,0-4.3,1.1
				c0,0.9,5,9.6,5.7,9.6h2.7l10.6-2.8c5,0.4,9.4-1.1,14.4-1.1c0.3,0,2.4,0,2.8,0c2.2,1.1,1.2,2.2,5.1,2.2c2.8,0,5.4-1.1,7.8-1.1
				c0,0.7-0.7,0.4-0.7,1.1h1.1c0,1.5-2.6,1.1-3.2,1.1l0.4,1.1c0.3,0,0.3,0,0.3,0l0.7-0.4l-0.3,1.1l-0.4,0.4l-1.3-0.4
				c-1.5,0-1.1,1.6-2.6,1.6c0,0,0.4,0,0.8,0c0.9,0,1.7-0.1,2.8-0.1c0,0.1-0.4,0.7-0.8,0.7l0.8,0.1l-0.8,0.4l-1.1-0.4
				c-2.4,0-2,3.2-4.2,3.9c0.5,0,0.5,0.8,0.5,0.8c0,1.3-1.1,0.3-1.6,1.3c0.5,0,0.5,0.7,0.5,1.1c0,1.1-1.1,0.7-1.1,1.7
				c0-0.4-0.5-0.4-0.7-0.4h-0.4l0.4,0.4c-0.9-0.4-4.7,1.7-4.7,2.6c0.4,0,0.4,0,0.4,0c0.4,0,2.2-0.4,2.3-0.4v0.4
				c-1.6,0.7-17.6,5.8-17.6,7.9c0,0.4,0,1.1,0.3,1.1c0.4,0,0.4,0,0.4,0c0.3,0,4-1.1,4.6-1.1h0.5h0.7c-1.7,1.1-4,1.3-5.8,2.4
				c2.2,3.6,6.2,12,6.2,16.1l-0.4,0.4c0,3.5,2.6,6.7,2.6,10.1h-0.4c-0.7-5-2.8-6.1-4.4-9.8l-0.5,0.4l0.5,1.1
				c0.4,0.7,0.5,2.3,0.5,2.3l-0.5,1.1c0.4,1.6,1.6,5.2,1.5,7.1c0.1-0.4,0.7-1.9,0.8-2.6v5c-0.1,0-0.1,0.4-0.1,0.7v0.4l0.1,0.7
				c0,2.2-1.2,2.2-1.9,3.4c0,0.4,0.1,2.8,0.1,3.6c0,1.1-0.1,3.1-1.2,3.9c0-0.8-0.4-1.9-0.7-2.6v3.9l-0.4,0.7c-1.1-1.1,0.4-2-0.7-3.1
				l-0.8,0.3c0,0,0,0.4,0,0.8c0,0-0.3,1.3,0.4,1.3l-0.4,2.3c0-0.8-0.9-4.7-0.9-5.8v-0.7C397.4,175.2,397.4,175.8,397,175.8z
				 M309.2,86.1c0-0.5,0-0.9-0.3-0.9c-0.4,0-0.4,0-0.4,0l-0.4,0.4C308.5,86.1,308.9,86.1,309.2,86.1z M311.3,76.8v0.4
				c0.4,0,1.1-0.4,1.1-1.1C312,76.1,311.3,76.1,311.3,76.8z M313.5,70.1h-0.8c0-0.1,0.4-0.7,0.8-0.7V70.1z M314.8,66
				c-0.3,0-0.3-0.7,0-0.7C315.2,65.4,315.2,66,314.8,66z M315.4,66c0.5,0,2,0.1,2.2,0.1c0,0.5,0,0.5,0,0.5l-0.1,0.4
				c-0.4,0-0.9,0.1-0.9,0.1l-1.2-1.2C315.2,66,315.2,66,315.4,66z M319.7,145.8c0.5,0,0.7,0,0.7,0.3h-0.1c-0.5,0-0.9,0-0.9-0.3
				H319.7z M321.8,65.4c0-0.4,0.3-0.4,0.3,0C322.1,65.6,321.8,65.6,321.8,65.4z M322.5,63.2c0-0.4,0.4-0.4,0.4,0
				C322.9,63.5,322.5,63.5,322.5,63.2z M322.5,146.1c0-0.3,0.4-0.3,0.4,0C322.9,146.5,322.5,146.5,322.5,146.1z M326,144.4
				c-0.7,0.4-1.3,0.7-2.2,0.7c0-0.7,1.1-0.7,1.5-0.7H326z M324.2,144c-0.4,0-0.4-0.7,0-0.7C324.6,143.3,324.6,144,324.2,144z
				 M324.9,140.3c-0.3,0-0.3-0.9,0-0.9C325.3,139.4,325.3,140.3,324.9,140.3z M325.3,143.3c0-0.1,0.4-0.1,0.4,0
				C325.7,143.7,325.3,143.7,325.3,143.3z M328.1,144.8v0.3c0,0-1.1,0.4-1.7,0.4c0,0,0,0-0.4,0l-0.3-0.4L328.1,144.8z M326.7,139.2
				c0,0.1,0.4,0.1,0.4,0C327.1,138.8,326.7,138.8,326.7,139.2z M328.5,140.3c-0.4,0-1.5,0.7-1.9,0.8c0,0,0,0,0.4,0
				c0.4,0,1.5-0.7,1.7-0.8C328.5,140.3,328.5,140.3,328.5,140.3z M327.1,144.8c-0.4,0-0.4-0.8,0-0.8
				C327.5,144,327.5,144.8,327.1,144.8z M328.1,142.2l-0.7,0.4h0.3c0.4,0,0.8,0,0.8-0.4C328.1,142.2,328.1,142.2,328.1,142.2z
				 M328.1,143.3c0,0.4,0.4,0.4,0.4,0C328.5,143.2,328.1,143.2,328.1,143.3z M328.5,131.8c-0.4,0-0.4-0.4,0-0.4
				C328.8,131.4,328.8,131.8,328.5,131.8z M329.2,142.1c0,0,0,0,0.1,0c0.9,0,1.6-0.5,2.2-0.9C330.4,141.1,329.9,141.5,329.2,142.1z
				 M329.2,143.2h0.7v-0.5L329.2,143.2z M329.4,140.3c0.5,0,0.5-0.9,0-0.9C329.2,139.4,329.2,140.3,329.4,140.3z M330.3,144l0.1-0.3
				h-0.1V144z M331,142.2l-0.5,0.4l0.9-0.4C331,142.2,331,142.2,331,142.2z M331,139.4c0.4,0,0.4-0.5,0-0.5
				C330.4,138.8,330.4,139.4,331,139.4z M332,142.6h0.5l-0.4-0.4c-0.1,0-0.1,0-0.1,0V142.6z M333.1,138.3l-0.9,0.5c0,0,0,0,0.4,0
				l0.7-0.5C333.1,138.3,333.1,138.3,333.1,138.3z M333.3,142.2c0,0,0,0,0.4,0l0.5-0.1L333.3,142.2z M333.7,143.3l0.7-0.1l-0.1-0.5
				L333.7,143.3z M333.7,175.6c0-0.4,0.5-0.4,0.5,0C334.2,175.8,333.7,175.8,333.7,175.6z M334.3,144.4c0.4,0,0.4-0.7,0-0.7
				C334.2,143.7,334.2,144.4,334.3,144.4z M336.1,192.7v0.4h-0.3v-0.4H336.1z M338.6,147.6c0-0.4,0.3-0.4,0.3,0
				C338.9,147.9,338.6,147.9,338.6,147.6z M339.3,121.6c-0.4,0-0.4-0.3,0-0.3C339.7,121.4,339.7,121.6,339.3,121.6z M339.7,144
				c0.3,0,0.3-0.7,0-0.7C339.3,143.3,339.3,144,339.7,144z M340.4,63.2c-0.4,0-0.4-0.7,0-0.7C340.7,62.5,340.7,63.2,340.4,63.2z
				 M341.1,144.4c-0.4,0-0.4-0.7,0-0.7C341.5,143.7,341.5,144.4,341.1,144.4z M341.5,147.2c0-0.4,0.3-0.4,0.3,0
				S341.5,147.6,341.5,147.2z M343.2,146.8c0-0.3,0.7-0.3,0.7,0C343.9,147.2,343.2,147.2,343.2,146.8z M343.9,143.7
				c-0.5,0-0.5-0.5,0-0.5C344.3,143.2,344.3,143.7,343.9,143.7z M344.4,143.7c-0.1,0-0.1-0.5,0-0.5C345,143.2,345,143.7,344.4,143.7
				z M345,146.5c0-0.4,0.5-0.4,0.5,0C345.5,146.8,345,146.8,345,146.5z M345.5,139.2c0.5,0,0.5-0.9,0-0.9
				C345.4,138.3,345.4,139.2,345.5,139.2z M346.2,146.1c0-0.3,0.4-0.3,0.4,0C346.6,146.5,346.2,146.5,346.2,146.1z M347.7,146.1
				v-0.3c0,0,2.2-0.4,2.8-0.8c0,0,0,0,0.4,0C350.5,145.8,348.3,146.1,347.7,146.1z M349.8,140.5c0.3,0,0.3-0.5,0-0.5
				C349.4,139.9,349.4,140.5,349.8,140.5z M353.7,144.4c-0.8,0.4-1.1,0.4-1.5,0.4c-0.3,0-0.7,0-0.7,0c0.4,0,1.1-0.4,1.3-0.4h0.4
				H353.7z M352,137.8c0,0.4,0.3,0.4,0.3,0C352.2,137.5,352,137.5,352,137.8z M353.3,137.5c0,0.3,0.4,0.3,0.4,0
				C353.7,137.1,353.3,137.1,353.3,137.5z M353.7,138.8c0,0.4,0.3,0.4,0.3,0C354,138.3,353.7,138.3,353.7,138.8z M354,138.3
				c0.4,0,0.4-0.5,0-0.5C353.7,137.8,353.7,138.3,354,138.3z M355.1,138.2c0.4,0,0.4,0,0.4-0.4C355.5,137.5,354.8,138.2,355.1,138.2
				z M355.5,136.7c0,0.4,0.3,0.4,0.3,0C355.7,136.4,355.5,136.4,355.5,136.7z M356.8,143.7l-1.1,0.3c0.4-0.3,0.8-0.7,1.1-0.7
				C356.8,143.7,356.8,143.7,356.8,143.7z M356.1,138.3c0.4,0,0.4-0.5,0-0.5C355.7,137.8,355.7,138.3,356.1,138.3z M357.6,137.5
				c0.3,0,0.3-0.8,0-0.8C357.2,136.7,357.2,137.5,357.6,137.5z M358.4,137.8c0.5,0,0.5-0.7,0-0.7
				C358.3,137.1,358.3,137.8,358.4,137.8z M359,135.6c0,0.4,0.4,0.4,0.4,0C359.4,135.3,359,135.3,359,135.6z M359.5,136.7
				c0.5,0,0.5-0.7,0-0.7C359.4,136,359.4,136.7,359.5,136.7z M359.5,138.3c0.5,0,0.5-0.5,0-0.5C359.4,137.8,359.4,138.3,359.5,138.3
				z M360,137.8c0.4,0,0.4-0.7,0-0.7C359.5,137.1,359.5,137.8,360,137.8z M360.4,143.2c0-0.5,0.1-0.5,0.1,0
				C360.6,143.3,360.4,143.3,360.4,143.2z M360.6,138.2c0.5,0,0.5-0.4,0-0.4C360.4,137.8,360.4,138.2,360.6,138.2z M362.2,142.6
				c0-0.4,0.1-0.4,0.1,0C362.3,143.2,362.2,143.2,362.2,142.6z M367.7,164c-0.4,0-0.4-0.7,0-0.7C368,163.3,368,164,367.7,164z
				 M371.2,157.7c-0.4,0-0.4-0.5,0-0.5S371.6,157.7,371.2,157.7z M377.4,63.5c0,0.4-0.7,0.4-1.1,0.4v-0.4H377.4z M378.9,192
				c-0.4,0-0.4-0.7,0-0.7C379.1,191.3,379.1,192,378.9,192z M383,181.2c-0.3,0-0.3-0.7,0-0.7C383.4,180.6,383.4,181.2,383,181.2z
				 M383.7,181.9c-0.3,0-0.3-0.7,0-0.7C384.1,181.2,384.1,181.9,383.7,181.9z M383.7,182.4c-0.3,0-0.3-0.5,0-0.5
				C384.1,181.9,384.1,182.4,383.7,182.4z M385.9,178.4c0.4,0,0.4-0.7,0-0.7C385.6,177.7,385.6,178.4,385.9,178.4z M386.4,98.1
				c-0.1,0-0.1-0.7,0-0.7C386.9,97.4,386.9,98.1,386.4,98.1z M388,97.9c0-0.5,0.4-0.5,0.4,0C388.4,98.1,388,98.1,388,97.9z
				 M390.2,181.4c-0.5,0-0.5-0.1,0-0.1C390.3,181.2,390.3,181.4,390.2,181.4z M390.7,65.4c0.5,0,0.5-0.8,0-0.8
				C390.3,64.6,390.3,65.4,390.7,65.4z M391.3,65.4l4.4-0.8H395C393.9,64.6,391.4,64.3,391.3,65.4z M391.8,180.6
				c-0.4,0-0.4-0.8,0-0.8C392.1,179.7,392.1,180.6,391.8,180.6z M393.9,179.5c-0.4,0-0.4-0.4,0-0.4
				C394.2,179.1,394.2,179.5,393.9,179.5z M395,173.8c0.3,0,0.3-0.8,0-0.8C394.6,173,394.6,173.8,395,173.8z M396.8,176.9
				c-0.4,0-0.4-0.7,0-0.7C397,176.3,397,176.9,396.8,176.9z M397.4,178l0.4,0.4c-0.4,0-0.4,0-0.4,0L397,178
				C397,178,397,178,397.4,178z M397.8,179.5v1.9h-0.4v-1.9H397.8z M398.1,183.4c-0.3,0-0.3-0.9,0-0.9
				C398.5,182.4,398.5,183.4,398.1,183.4z M399.2,175.8c0.4,0,0.4-0.7,0-0.7C398.8,175.2,398.8,175.8,399.2,175.8z M399.2,178
				c-0.4,0-0.4-0.7,0-0.7C399.6,177.3,399.6,178,399.2,178z M399.2,182.4c-0.4,0-0.4-0.1,0-0.1C399.6,182.3,399.6,182.4,399.2,182.4
				z M399.6,64.3c0.3,0,0.3-0.8,0-0.8C399.2,63.5,399.2,64.3,399.6,64.3z M399.9,180.8c-0.3,0-0.3-0.7,0-0.7
				C400.3,180.2,400.3,180.8,399.9,180.8z M399.9,174.5c0,0,0,0,0.4,0s0-1.1,0.7-1.5h-0.7L399.9,174.5z M400.9,174.9
				c0.4,0,0.4-0.8,0-0.8C400.7,174.1,400.7,174.9,400.9,174.9z M402,63.5c0,0.4,0.4,0.4,0.4,0C402.4,63.2,402,63.2,402,63.5z
				 M402.6,104.1c-0.1,0-0.1-0.7,0-0.7C403.1,103.5,403.1,104.1,402.6,104.1z M403.1,156.2c0,0,0.4,0.9,0.4,1.1c0,0.4,0,0.4,0,0.4
				c-0.4-0.4-0.9-1.1-0.9-1.5C402.6,156.2,402.6,156.2,403.1,156.2z M403.1,171.7c-0.5,0-0.5-0.5,0-0.5
				C403.5,171.1,403.5,171.7,403.1,171.7z M404.7,62.8c-0.4,0-1.2,0.4-1.6,0.4h1.1c0,0,1.2,0.3,1.2-0.4h-0.1H404.7z M403.5,159
				c-0.4,0-0.4-0.7,0-0.7C403.6,158.4,403.6,159,403.5,159z M403.5,171.1c-0.4,0-0.4-0.9,0-0.9C403.6,170.2,403.6,171.1,403.5,171.1
				z M403.6,163.3c0.5,0,0.5-0.4,0-0.4C403.5,162.9,403.5,163.3,403.6,163.3z M403.6,165.1l0.5-0.4l-0.5-0.3V165.1z M404.2,159
				c-0.5,0-0.5-0.3,0-0.3C404.3,158.8,404.3,159,404.2,159z M407.1,130.8c0,0-0.8,0.3-1.3,0.3h-0.4h-0.1l1.9-0.7V130.8z
				 M406.9,163.6c-0.4,0.4-0.4-1.7,0-1.3C407.1,162.7,407.1,163.3,406.9,163.6z M406.9,164.7c-0.4,0-0.4-0.3,0-0.3
				C407.1,164.4,407.1,164.7,406.9,164.7z M406.9,63.5c0,0.4,0.7,0.4,0.7,0C407.5,63.2,406.9,63.2,406.9,63.5z M407.9,62.8
				c0.3,0,0.3-0.7,0-0.7C407.5,62.1,407.5,62.8,407.9,62.8z M408.2,63.2h0.8c0.9,0,3.5,0,3.8-1.1L408.2,63.2z M409,161.6
				c-0.4,0-0.4-0.8,0-0.8C409.3,160.8,409.3,161.6,409,161.6z M409,62.1c0.7,0,1.7,0,2-0.4h-2V62.1z M409.3,163.3
				c-0.3,0-0.3-0.7,0-0.7C409.7,162.7,409.7,163.3,409.3,163.3z M410,144.4c-0.3,0-0.3-0.4,0-0.4C410.4,144,410.4,144.4,410,144.4z
				 M411.8,61.5c0,0.3,0.3,0.3,0.3,0C412.1,61.1,411.8,61.1,411.8,61.5z M411.8,123.5c0,0.3,0.3,0.3,0.3,0
				C412.1,123.1,411.8,123.1,411.8,123.5z M412.5,118.8l-0.4,0.4l0.7-0.4C412.5,118.8,412.5,118.8,412.5,118.8z M414.9,60.7
				c-0.3,0-1.3,0-1.7,0.8c0.7,0,1.5-0.4,2.2-0.8C414.9,60.7,414.9,60.7,414.9,60.7z M413.6,62.1c0,0,0.7,0,1.1,0
				c0.8,0,1.7-0.4,1.9-1.5C416.4,60.7,413.9,61.7,413.6,62.1z M413.6,118.8c0,0.4,0.3,0.4,0.3,0
				C413.9,118.5,413.6,118.5,413.6,118.8z M413.9,64.6c0.4,0,0.4-0.3,0-0.3C413.6,64.3,413.6,64.6,413.9,64.6z M414.3,80.7
				c0.4,0,0.4-0.7,0-0.7S413.9,80.7,414.3,80.7z M414.3,121.6c0.4,0,0.4-0.7,0-0.7S413.9,121.6,414.3,121.6z M414.3,120.3
				c0,0.3,0.4,0.3,0.4,0C414.7,119.9,414.3,119.9,414.3,120.3z M414.7,118.8c0.8,0,1.9-0.3,2.8-1.1h-0.4
				C416.4,117.7,414.7,117.7,414.7,118.8z M414.9,64.6c0.4,0,0.4-0.7,0-0.7C414.7,63.9,414.7,64.6,414.9,64.6z M414.9,80.7
				c0.4,0,0.4-0.7,0-0.7C414.7,80,414.7,80.7,414.9,80.7z M414.9,118.5c0-0.4,0.4-0.4,0.4,0C415.3,118.8,414.9,118.8,414.9,118.5z
				 M415.3,56c-0.4,0-0.4-0.9,0-0.9C415.5,55,415.5,56,415.3,56z M415.5,120.3c0,0,0,0,0.5,0c0.4,0,1.1-0.4,1.1-1.1
				C416.6,119.6,416,119.9,415.5,120.3z M416.4,64.3c0.1,0,0.1-0.8,0-0.8C416,63.5,416,64.3,416.4,64.3z M416.4,80.4
				c-0.4,0-0.4-0.8,0-0.8C416.6,79.6,416.6,80.4,416.4,80.4z M416.6,123.5c-0.1,0-0.1-0.8,0-0.8
				C417.1,122.7,417.1,123.5,416.6,123.5z M418.2,61.5c-0.5,0-1.1,0.3-1.6,0.3c0,0,0.5,0,0.9,0c0.1,0,0.7,0,0.8-0.3
				C418.2,61.5,418.2,61.5,418.2,61.5z M417.1,61.1c0.4,0,0.4,0,0.4-0.4C417.5,60.4,416.6,61.1,417.1,61.1z M417.1,79.4
				c-0.5,0,0.4-0.8,0.4-0.4S417.5,79.4,417.1,79.4z M417.1,116.4c0.4,0,0.4,0,0.4-0.4C417.5,115.7,416.6,116.4,417.1,116.4z
				 M417.1,63.5c0,0.4,0.4,0.4,0.4,0C417.5,63.2,417.1,63.2,417.1,63.5z M418.2,78.6c-0.5,0-0.5-0.7,0-0.7
				C418.3,77.9,418.3,78.6,418.2,78.6z M418.2,119.6c0.1,0,0.1,0,0.1-0.4C418.3,118.8,417.6,119.6,418.2,119.6z M418.2,60.7
				c0,0,0.1,0,0.5,0c0.7,0,1.1,0,1.7-0.3h-0.7C419.2,60.4,418.7,60.4,418.2,60.7z M418.2,63.9c0,0.4,0.1,0.4,0.1,0
				C418.3,63.5,418.2,63.5,418.2,63.9z M418.3,117.7c0.4,0,0.4-0.7,0-0.7C418.2,117,418.2,117.7,418.3,117.7z M419.2,120.9
				c-0.5,0-0.5-0.7,0-0.7C419.4,120.3,419.4,120.9,419.2,120.9z M419.2,63.5c0,0.4,0.1,0.4,0.1,0C419.4,63.2,419.2,63.2,419.2,63.5z
				 M419.4,77.5c-0.1,0-0.1-0.7,0-0.7C419.8,76.8,419.8,77.5,419.4,77.5z M419.4,117c0.4,0,0.4-0.7,0-0.7
				C419.2,116.4,419.2,117,419.4,117z M419.8,62.1c0,0.4,0.5,0.4,0.5,0C420.3,61.7,419.8,61.7,419.8,62.1z M420.3,114.6l0.1-0.5
				h-0.1V114.6z M420.5,65c0.4,0,0.4-0.7,0-0.7C420.3,64.3,420.3,65,420.5,65z M420.5,115.3c0.4,0,0.4-0.7,0-0.7
				C420.3,114.6,420.3,115.3,420.5,115.3z M420.5,120.9c-0.1,0-0.1-0.7,0-0.7C420.9,120.3,420.9,120.9,420.5,120.9z M420.9,80.4
				h-0.4l1.5-0.8C421.9,80.4,421.1,80.4,420.9,80.4z M420.9,118.1l-0.4,0.4v-0.4H420.9z M421.5,119.2c0,0.7-0.4,0.7-1.1,0.7
				c0-0.3,0.4-1.1,1.1-1.1V119.2z M420.9,116.8c-0.4,0-0.4-0.8,0-0.8C421.1,116,421.1,116.8,420.9,116.8z M420.9,62.5
				c0,0.3,0.3,0.3,0.3,0C421.1,62.1,420.9,62.1,420.9,62.5z M420.9,111.3c0,0.1,1.1,0.1,1.1,0C421.9,110.9,420.9,110.9,420.9,111.3z
				 M421.1,117.4c0-0.4,0.8-0.4,0.8,0C421.9,117.7,421.1,117.7,421.1,117.4z M421.5,116.4c-0.4,0-0.4-0.7,0-0.7
				S421.9,116.4,421.5,116.4z M421.5,67.3c0,0,0,0,0.4,0l1.1-0.1h-0.4C422.2,67.1,421.9,67.1,421.5,67.3z M421.9,66.2
				c0,0.5,0.3,0.5,0.3,0C422.2,66,421.9,66,421.9,66.2z M422.2,118.8c-0.3,0-0.3-0.7,0-0.7C422.6,118.1,422.6,118.8,422.2,118.8z
				 M422.2,119.6c-0.3,0-0.3-0.4,0-0.4C422.6,119.2,422.6,119.6,422.2,119.6z M422.2,62.1h0.4c0.7,0,4.6-0.7,4.6-1.5
				C425.4,60.7,423.7,61.5,422.2,62.1z M422.6,59.7c0,0.3,0.7,0.3,0.7,0C423.3,59.3,422.6,59.3,422.6,59.7z M423,66.7
				c0.3,0,0.3-0.7,0-0.7C422.6,66,422.6,66.7,423,66.7z M423,69.4c0.3,0,0.3-0.5,0-0.5C422.6,68.9,422.6,69.4,423,69.4z M423,80
				c-0.4,0-0.4-0.7,0-0.7C423.3,79.4,423.3,80,423,80z M423,116c-0.4,0-0.4-0.7,0-0.7C423.3,115.3,423.3,116,423,116z M423,108.4
				h0.7c0.3,0,1.1,0,1.1-0.4L423,108.4z M424,119.2l-0.9,0.4l0.7-0.8L424,119.2z M423.3,56c-0.3,0-0.3-0.9,0-0.9
				C423.7,55,423.7,56,423.3,56z M423.3,63.2c0.4,0,0.4-0.7,0-0.7C423,62.5,423,63.2,423.3,63.2z M423.3,113.5c-0.3,0-0.3-0.5,0-0.5
				C423.7,113,423.7,113.5,423.3,113.5z M423.3,70.5h0.4v-0.4L423.3,70.5z M424,59.3h0.4l-0.4-0.4V59.3z M424.8,110.9H424l0.4-0.5
				L424.8,110.9z M424.4,66.2c-0.4,0-0.4-0.5,0-0.5C424.8,65.6,424.8,66.2,424.4,66.2z M424.8,63.9c0-0.4,0.7-0.4,0.7,0
				C425.4,64.3,424.8,64.3,424.8,63.9z M425,70h-0.3l0.7-0.5h0.4V69c-0.4,0-1.1,0-1.1,0.4L425,70z M424.8,119.2c0,0,0,0,0-0.4
				c0-0.3,0.3-0.3,0.7-0.3C425.4,118.8,425,119.2,424.8,119.2z M425,60.4c0.4,0,0.4-0.7,0-0.7C424.8,59.7,424.8,60.4,425,60.4z
				 M425,72.2c-0.3,0-0.3-0.7,0-0.7C425.4,71.6,425.4,72.2,425,72.2z M425,79c-0.3,0-0.3-0.7,0-0.7C425.4,78.3,425.4,79,425,79z
				 M425,68.3c0,0.5,0.4,0.5,0.4,0C425.4,68.2,425,68.2,425,68.3z M425.4,66.7h0.4v-0.5L425.4,66.7z M425.8,65.4
				c-0.4,0-0.4-0.8,0-0.8C426.1,64.6,426.1,65.4,425.8,65.4z M425.8,68.2c0.3,0,0.3-0.9,0-0.9C425.4,67.3,425.4,68.2,425.8,68.2z
				 M426.5,114.6c-0.4,0-0.4-0.5,0-0.5C426.8,114.1,426.8,114.6,426.5,114.6z M426.5,61.7h0.3c0.4,0,0.8,0,0.8-0.3L426.5,61.7z
				 M426.8,63.9c-0.3,0-0.3-0.7,0-0.7C427.2,63.2,427.2,63.9,426.8,63.9z M426.8,112.1c-0.3,0-0.3-0.7,0-0.7
				C427.2,111.4,427.2,112.1,426.8,112.1z M426.8,59.3c0-0.4,0.4-0.4,0.4,0C427.2,59.7,426.8,59.7,426.8,59.3z M426.8,66
				c0,0.1,0,0.1,0,0.1c0.4,0,0.8-0.1,1.1-0.5L426.8,66z M426.8,110.2c0-0.4,0.4-0.4,0.4,0C427.2,110.3,426.8,110.3,426.8,110.2z
				 M426.8,118.5c0-0.4,0.4-0.4,0.4,0C427.2,118.8,426.8,118.8,426.8,118.5z M427.2,78.3c-0.4,0-0.4-0.8,0-0.8
				C427.6,77.5,427.6,78.3,427.2,78.3z M427.6,61.1c0.3,0,0.3-0.7,0-0.7C427.2,60.4,427.2,61.1,427.6,61.1z M427.6,63.5
				c-0.4,0-0.4-0.7,0-0.7C427.9,62.8,427.9,63.5,427.6,63.5z M427.6,109.8c-0.4,0-0.4-0.7,0-0.7
				C427.9,109.1,427.9,109.8,427.6,109.8z M427.9,68.2c-0.3,0-0.3-0.9,0-0.9C428.3,67.3,428.3,68.2,427.9,68.2z M427.9,113.1
				c-0.3,0-0.3-0.7,0-0.7C428.3,112.5,428.3,113.1,427.9,113.1z M428.3,118.1v0.4l-0.4-0.4H428.3z M428.3,59.3c-0.4,0-0.4-0.7,0-0.7
				C428.7,58.6,428.7,59.3,428.3,59.3z"/>
		</g>
	</g>
</g>
<g id="Layer_3">
	<path class="st4" d="M276.5,233.4h-42.3v-213h42.3V233.4z"/>
	<path class="st4" d="M225.1,233.4h-48.4l-14.6-78.9v78.9h-43.3v-213h43.3v71.2l16.7-71.2h41.8l-23.5,97.2L225.1,233.4z"/>
	<path class="st4" d="M112.2,233.4H74.4L68,189.2H51.1l-6.5,44.2H6.9l28.5-213h48.3L112.2,233.4z M64.9,155.7l-5.5-72.7l-5.2,72.7
		H64.9z"/>
	<path class="st4" d="M393.1,233.4h-42c-2.1-3-4.7-4.6-5.7-13.2c-1-8.6,0-59.6,0-60c0-7.2-3.8-10.8-11.7-10.8v84h-43.3v-213h56.2
		c10.7,0,22.7,1.7,30.6,7.8c7.9,6,12.7,16.9,12.7,30v37.3c0,16.5-3.5,27.7-19.2,33.6c15.8,4.6,19.2,16.3,19.2,35.2v11.6
		C389.9,209.8,388.4,228.8,393.1,233.4z M345.4,99.2V68c0-7.4-3.9-11.2-11.7-11.2v53.7C341.5,110.5,345.4,106.8,345.4,99.2z"/>
	<path class="st4" d="M505.1,233.4h-37.8l-6.4-44.2h-16.9l-6.5,44.2h-37.8l28.5-213h48.3L505.1,233.4z M457.9,155.7l-5.5-72.7
		l-5.2,72.7H457.9z"/>
</g>
</svg>
